<mxfile host="app.diagrams.net" modified="2023-07-11T14:16:39.373Z" agent="Mozilla/5.0 (Macintosh; Intel Mac OS X 10_15_7) AppleWebKit/537.36 (KHTML, like Gecko) Chrome/114.0.0.0 Safari/537.36" etag="EWW71h9hhq8oG_Oxr9Mb" version="21.6.1" type="device">
  <diagram name="Seite-1" id="UkwXG7Ko2avV4vK8nV22">
    <mxGraphModel dx="4261" dy="1349" grid="1" gridSize="10" guides="1" tooltips="1" connect="1" arrows="1" fold="1" page="1" pageScale="1" pageWidth="827" pageHeight="1169" math="0" shadow="0">
      <root>
        <mxCell id="0" />
        <mxCell id="1" parent="0" />
        <mxCell id="tl9KZuzmo9LQeoau1raO-4" style="edgeStyle=orthogonalEdgeStyle;rounded=0;orthogonalLoop=1;jettySize=auto;html=1;" parent="1" source="tl9KZuzmo9LQeoau1raO-1" target="tl9KZuzmo9LQeoau1raO-3" edge="1">
          <mxGeometry relative="1" as="geometry" />
        </mxCell>
        <mxCell id="tl9KZuzmo9LQeoau1raO-1" value="" style="strokeWidth=2;html=1;shape=mxgraph.flowchart.start_2;whiteSpace=wrap;" parent="1" vertex="1">
          <mxGeometry x="400" y="10" width="37" height="40" as="geometry" />
        </mxCell>
        <mxCell id="tl9KZuzmo9LQeoau1raO-7" style="edgeStyle=orthogonalEdgeStyle;rounded=0;orthogonalLoop=1;jettySize=auto;html=1;entryX=0.5;entryY=0;entryDx=0;entryDy=0;" parent="1" source="tl9KZuzmo9LQeoau1raO-3" target="tl9KZuzmo9LQeoau1raO-5" edge="1">
          <mxGeometry relative="1" as="geometry" />
        </mxCell>
        <mxCell id="tl9KZuzmo9LQeoau1raO-3" value="&lt;div style=&quot;text-align: center;&quot;&gt;&lt;span style=&quot;background-color: initial;&quot;&gt;Einleitung&lt;/span&gt;&lt;/div&gt;&lt;div style=&quot;text-align: center;&quot;&gt;&lt;span style=&quot;background-color: initial;&quot;&gt;Ort: Vorlesung&lt;/span&gt;&lt;/div&gt;&lt;div style=&quot;&quot;&gt;&lt;br&gt;&lt;/div&gt;&lt;div style=&quot;&quot;&gt;&lt;span style=&quot;background-color: initial;&quot;&gt;N:&quot;Als du in einer langweiligen Vorlesung sahst, hast du plötzlich einen Anruf von deiner Mutter bekommen.&quot;&lt;/span&gt;&lt;/div&gt;&lt;div style=&quot;&quot;&gt;&lt;span style=&quot;background-color: initial;&quot;&gt;N: &quot;&lt;/span&gt;&lt;span style=&quot;background-color: initial;&quot;&gt;Das ist sehr ungewöhnlich, weil deine Mutter eigentlich genau weiß, dass du um die Uhrzeit meist in der Uni sitzt.&quot;,&lt;/span&gt;&lt;/div&gt;&lt;div style=&quot;&quot;&gt;N: &quot;In dem Telefonat erzählt sie dir, dass dein Opa heute gestorben ist... er aber friedlich eingeschlafen ist und laut Arzt keine Schmerzen hatte.&quot;,&lt;/div&gt;&lt;span style=&quot;background-color: initial;&quot;&gt;&lt;div style=&quot;&quot;&gt;&lt;span style=&quot;background-color: initial;&quot;&gt;N: &quot;Das trifft dich hart und du fährst direkt nach der Vorlesung in deine Heimatstadt.&lt;/span&gt;&lt;/div&gt;&lt;/span&gt;" style="rounded=0;whiteSpace=wrap;html=1;align=left;" parent="1" vertex="1">
          <mxGeometry x="232.75" y="70" width="371.5" height="190" as="geometry" />
        </mxCell>
        <mxCell id="tl9KZuzmo9LQeoau1raO-8" style="edgeStyle=orthogonalEdgeStyle;rounded=0;orthogonalLoop=1;jettySize=auto;html=1;entryX=0.5;entryY=0;entryDx=0;entryDy=0;" parent="1" source="tl9KZuzmo9LQeoau1raO-5" target="tl9KZuzmo9LQeoau1raO-6" edge="1">
          <mxGeometry relative="1" as="geometry" />
        </mxCell>
        <mxCell id="tl9KZuzmo9LQeoau1raO-5" value="&lt;div style=&quot;text-align: center;&quot;&gt;Ankunft&lt;/div&gt;&lt;div style=&quot;text-align: center;&quot;&gt;Ort: Hausflur&lt;/div&gt;&lt;div style=&quot;text-align: center;&quot;&gt;&lt;br&gt;&lt;/div&gt;&lt;div style=&quot;&quot;&gt;&lt;span style=&quot;background-color: initial;&quot;&gt;Rosi: &quot;Endlich Zuhause... Ich hoffe, Opa hatte ein erfülltes Leben &quot;,&lt;/span&gt;&lt;br&gt;&lt;/div&gt;&lt;div style=&quot;&quot;&gt;&lt;div&gt;Rosi:&amp;nbsp;&lt;span style=&quot;background-color: initial;&quot;&gt;&quot;Ich habe Opa immer gerne besucht, auch als er schon senil war, hatte ich das Gefühl, dass er mich immer sofort wiedererkannt hat.&quot;,&lt;/span&gt;&lt;/div&gt;&lt;div&gt;Rosi:&lt;span style=&quot;background-color: initial;&quot;&gt;&quot;Da ich seiner Mutter und meiner Urgroßmutter sehr ähnlich sehe, hatten wir schon immer eine besondere Beziehung.&quot;,&lt;br&gt;&lt;/span&gt;&lt;span style=&quot;background-color: initial;&quot;&gt;Rosi:&quot;Er hatte nicht mehr als Geschichten über sie, denn seine Mutter Rosalia ist verschwunden, als er zwei Jahre alt war... und Opa hing sehr an den Geschichten die sein Vater ihm erzählt hat.&quot;,&lt;/span&gt;&lt;/div&gt;&lt;div&gt;Rosi:&lt;span style=&quot;background-color: initial;&quot;&gt;&quot;Wir haben uns immer zusammen vorgestellt wie sie war... und bei einem waren wir uns einig... Ich hab nur ihr Aussehen geerbt und ihren Namen!&quot;,&lt;/span&gt;&lt;/div&gt;&lt;div&gt;Rosi:&lt;span style=&quot;background-color: initial;&quot;&gt;&quot;Rosalia schien sehr wild und abenteuerlustig zu sein... Ich bin eher das Gegenteil davon.&lt;/span&gt;&lt;/div&gt;&lt;div&gt;&lt;span style=&quot;background-color: initial;&quot;&gt;&lt;br&gt;&lt;/span&gt;&lt;/div&gt;&lt;div&gt;Bilderrahmen anschauen --&amp;gt; Item&lt;/div&gt;&lt;div&gt;&lt;br&gt;&lt;/div&gt;&lt;div&gt;Rosi:&quot;Aber wir haben nie darüber gesprochen, was mit ihr passiert ist und warum die verschwunden ist.&quot;&lt;/div&gt;&lt;div&gt;Rosi: &quot;Wahrscheinlich ist es zu schmerzhaft, darüber nachzudenken, geschweige denn darüber zu sprechen.&quot;&lt;/div&gt;&lt;div&gt;Rosi: &quot;Es ist schon verrückt, wie ein Mensch, der in der einen Sekunde noch da war und in der nächsten verschwunden ist.&quot;&lt;/div&gt;&lt;div&gt;&lt;span style=&quot;background-color: initial;&quot;&gt;&lt;br&gt;&lt;/span&gt;&lt;/div&gt;&lt;/div&gt;" style="rounded=0;whiteSpace=wrap;html=1;align=left;" parent="1" vertex="1">
          <mxGeometry x="150.23" y="340" width="536.55" height="345" as="geometry" />
        </mxCell>
        <mxCell id="tl9KZuzmo9LQeoau1raO-12" style="edgeStyle=orthogonalEdgeStyle;rounded=0;orthogonalLoop=1;jettySize=auto;html=1;entryX=0.5;entryY=0;entryDx=0;entryDy=0;" parent="1" source="tl9KZuzmo9LQeoau1raO-6" target="tl9KZuzmo9LQeoau1raO-11" edge="1">
          <mxGeometry relative="1" as="geometry" />
        </mxCell>
        <mxCell id="tl9KZuzmo9LQeoau1raO-6" value="&lt;div style=&quot;text-align: center;&quot;&gt;Entdecken&lt;/div&gt;&lt;div style=&quot;text-align: center;&quot;&gt;Ort: Wohnzimmer&lt;/div&gt;&lt;div style=&quot;text-align: center;&quot;&gt;&lt;br&gt;&lt;/div&gt;&lt;div style=&quot;&quot;&gt;&lt;span style=&quot;background-color: initial;&quot;&gt;Mom:&amp;nbsp;&lt;/span&gt;&quot;Hallo mein kleiner Spatz&quot;&lt;/div&gt;&lt;div style=&quot;&quot;&gt;&lt;div&gt;&lt;span style=&quot;background-color: initial;&quot;&gt;Mom:&amp;nbsp;&quot;Schön, dass du früher nach Hause gekommen bist. Wie geht es dir?&quot;&lt;/span&gt;&lt;br&gt;&lt;/div&gt;&lt;div&gt;Rosi:: &quot;Hallo Mama, den Umständen entsprechend... aber ich glaube Großvater wollte nicht mehr weiterkämpfen.&quot;&lt;/div&gt;&lt;div&gt;Rosi: &quot;Und wer weiß, vielleicht trifft er jetzt seine Mutter Rosalia.&quot;&lt;/div&gt;&lt;div&gt;Mom: &quot;Oh ja, das wäre schön, oder? Ich würde es ihm wünschen!&quot;&lt;/div&gt;&lt;div&gt;Mom:&amp;nbsp;&quot;Hilfst du uns beim Packen? Wir wollen heute noch das Wohnzimmer fertig machen.&quot;&lt;/div&gt;&lt;div&gt;&lt;br&gt;&lt;/div&gt;&lt;div&gt;Audio: Kartons packen&lt;/div&gt;&lt;div&gt;&lt;br&gt;&lt;/div&gt;&lt;div&gt;N:&amp;nbsp;&quot;Du hilfst deiner Familie die Sachen deines Opas durchzugehen und in Kartons zu packen.&quot;&lt;/div&gt;&lt;div&gt;&lt;br&gt;&lt;/div&gt;&lt;div&gt;Rosi: &quot;Huch... was ist den das?&lt;/div&gt;&lt;div&gt;&lt;br&gt;&lt;/div&gt;&lt;div&gt;Tagebuch --&amp;gt; Item&lt;/div&gt;&lt;div&gt;&lt;br&gt;&lt;/div&gt;&lt;div&gt;Rosi: &quot;Das sieht nach einem Tagebuch aus... kann es das Tagebuch von Großvater sein, von dem Opa immer erzählt hat?&quot;&lt;/div&gt;&lt;div&gt;Rosi: &quot;&amp;nbsp;Wenn das Mama sieht, wird sie es mir bestimmt wegnehmen&lt;span style=&quot;background-color: initial;&quot;&gt;?&quot;&lt;/span&gt;&lt;br&gt;&lt;/div&gt;&lt;div&gt;Rosi: &quot;Soll ich es trotzdem mitnehmen?&quot;&lt;/div&gt;&lt;div&gt;&lt;br&gt;&lt;/div&gt;&lt;div&gt;&lt;br&gt;&lt;/div&gt;&lt;/div&gt;" style="rounded=0;whiteSpace=wrap;html=1;align=left;" parent="1" vertex="1">
          <mxGeometry x="152.73" y="710" width="531.55" height="380" as="geometry" />
        </mxCell>
        <mxCell id="tl9KZuzmo9LQeoau1raO-21" style="edgeStyle=orthogonalEdgeStyle;rounded=0;orthogonalLoop=1;jettySize=auto;html=1;entryX=0.5;entryY=0;entryDx=0;entryDy=0;" parent="1" source="tl9KZuzmo9LQeoau1raO-9" target="tl9KZuzmo9LQeoau1raO-19" edge="1">
          <mxGeometry relative="1" as="geometry" />
        </mxCell>
        <mxCell id="tl9KZuzmo9LQeoau1raO-9" value="Vorstellung Urgroßmutter&lt;br&gt;Ort: Wohnzimmer&lt;br&gt;&lt;br&gt;&lt;br&gt;Rosi:&amp;nbsp;&quot;Hey Mama, ich bin echt kaputt von der Heimfahrt, ist es ok, wenn ich in mein Zimmer gehen würde und mich schon ins Bett legen würde?&quot;&lt;br&gt;Mom: &quot;Ja aber natürlich mein Schatz, ruh dich aus... Wir sehen uns dann morgen früh.&quot;&lt;br&gt;&lt;br&gt;Ort: Schlafzimmer&lt;br&gt;&lt;br&gt;Tagebuch mit Vorstellung Rosalia --&amp;gt; Item&lt;br&gt;&lt;br&gt;Rosi: &quot;Opa hat mir zwar schon immer viel von Rosalia erzählt, aber sie aus den Augen von Großvater zu sehen... Ich bin gespannt was mich erwartet.&quot;&lt;br&gt;Rosi: &quot;Wow, so sah MEINE Urgroßmutter aus?! Sie ist wunderschön&quot;&lt;br&gt;Rosi: &quot;Ich sehe ihr wirklich sehr ähnlich. Sogar mein Muttermal ist an der gleichen Stelle... Da hat das Universum aber auch nur copy und paste gemacht.&lt;br&gt;&lt;br&gt;Audio: lachen_Rosi&lt;br&gt;&lt;br&gt;Rosi lesend: &quot;Rosalia hat mir heute mal wieder beim arbeiten zu geschaut. Sie sagt zwar immer, dass sie einfach nur gerne im Blumengarten ist aber dafür hat sie ein bisschen viel Bilder von mir gemacht. Als sie kurz abgelenkt war hab ich sie ihr klauen können und konnte dieses wunderschöne Bild ovn ihr schießen. Sie ist einfach eine einzigartige Frau. Durch das Bild allein spüre ich ihr Selbstbewusstsein. Das ich diese Frau an meiner Seite haben darf...&quot;&lt;br&gt;Rosi: &quot;Jetzt bin ich aber wirklich müde, Großmutter scheint eine sehr interessante Person gewesen zu sein. Ich hätte sie gerne kennengelernt...&lt;span style=&quot;background-color: initial;&quot;&gt;&quot;&lt;br&gt;&lt;/span&gt;&lt;br&gt;Transition: EyesClosed" style="rounded=0;whiteSpace=wrap;html=1;" parent="1" vertex="1">
          <mxGeometry x="-600" y="920" width="660" height="465" as="geometry" />
        </mxCell>
        <mxCell id="tl9KZuzmo9LQeoau1raO-23" style="edgeStyle=orthogonalEdgeStyle;rounded=0;orthogonalLoop=1;jettySize=auto;html=1;" parent="1" source="tl9KZuzmo9LQeoau1raO-10" target="tl9KZuzmo9LQeoau1raO-20" edge="1">
          <mxGeometry relative="1" as="geometry">
            <Array as="points">
              <mxPoint x="1070" y="1630" />
              <mxPoint x="420" y="1630" />
            </Array>
          </mxGeometry>
        </mxCell>
        <mxCell id="tl9KZuzmo9LQeoau1raO-10" value="Ort: Wohnzimmer&lt;br&gt;&lt;br&gt;N:&amp;nbsp;&quot;Nachdem du und deine Familie zusammengepackt habt, entscheidest du dich dafür ins Bett zu gehen um morgen früh fit in den Tag zu starten.&quot;&lt;br&gt;&lt;br&gt;Ort: Schlafzimmer&lt;br&gt;&lt;br&gt;Transition: EyesClosed&lt;br&gt;Transition: EyesOpen&lt;br&gt;Audio: Gähnen&lt;br&gt;&lt;br&gt;Rosi: &quot;Wie.., Wie.. kommt den das hier her?&quot;&lt;br&gt;&lt;br&gt;Tagebuch --&amp;gt; Item&lt;br&gt;&lt;br&gt;Rosi: &quot;Ist das etwa das Tagebuch?... Ich hab das doch wieder zurückgelegt&quot;&lt;br&gt;Rosi: &quot;Naja, wenn es schon hier liegt, dann kann ich vielleicht doch ein bisschen im Leben anderer herumschnüffeln&quot;&lt;br&gt;&lt;br&gt;Tagebuch mit Vorstellung Rosalia --&amp;gt; Item" style="rounded=0;whiteSpace=wrap;html=1;" parent="1" vertex="1">
          <mxGeometry x="780" y="1050" width="580" height="300" as="geometry" />
        </mxCell>
        <mxCell id="tl9KZuzmo9LQeoau1raO-13" style="edgeStyle=orthogonalEdgeStyle;rounded=0;orthogonalLoop=1;jettySize=auto;html=1;" parent="1" source="tl9KZuzmo9LQeoau1raO-11" target="tl9KZuzmo9LQeoau1raO-10" edge="1">
          <mxGeometry relative="1" as="geometry" />
        </mxCell>
        <mxCell id="tl9KZuzmo9LQeoau1raO-14" style="edgeStyle=orthogonalEdgeStyle;rounded=0;orthogonalLoop=1;jettySize=auto;html=1;entryX=1;entryY=0.5;entryDx=0;entryDy=0;" parent="1" source="tl9KZuzmo9LQeoau1raO-11" target="tl9KZuzmo9LQeoau1raO-9" edge="1">
          <mxGeometry relative="1" as="geometry" />
        </mxCell>
        <mxCell id="tl9KZuzmo9LQeoau1raO-11" value="Entscheidung" style="rhombus;whiteSpace=wrap;html=1;" parent="1" vertex="1">
          <mxGeometry x="367.75" y="1150" width="101.49" height="100" as="geometry" />
        </mxCell>
        <mxCell id="tl9KZuzmo9LQeoau1raO-15" value="Ja, Das merkt Mama bestimmt nicht!" style="text;html=1;strokeColor=none;fillColor=none;align=center;verticalAlign=middle;whiteSpace=wrap;rounded=0;" parent="1" vertex="1">
          <mxGeometry x="190" y="1169" width="130" height="30" as="geometry" />
        </mxCell>
        <mxCell id="tl9KZuzmo9LQeoau1raO-16" value="Nein, man steckt seine Nase nicht in fremde Tagebücher!" style="text;html=1;strokeColor=none;fillColor=none;align=center;verticalAlign=middle;whiteSpace=wrap;rounded=0;" parent="1" vertex="1">
          <mxGeometry x="550" y="1169" width="163.22" height="30" as="geometry" />
        </mxCell>
        <mxCell id="tl9KZuzmo9LQeoau1raO-17" value="&lt;font style=&quot;font-size: 18px;&quot;&gt;&lt;b&gt;+10P&lt;/b&gt;&lt;/font&gt;" style="text;html=1;strokeColor=none;fillColor=none;align=center;verticalAlign=middle;whiteSpace=wrap;rounded=0;" parent="1" vertex="1">
          <mxGeometry x="225" y="1199" width="60" height="30" as="geometry" />
        </mxCell>
        <mxCell id="tl9KZuzmo9LQeoau1raO-18" value="&lt;span style=&quot;font-size: 18px;&quot;&gt;&lt;b&gt;-10P&lt;/b&gt;&lt;/span&gt;" style="text;html=1;strokeColor=none;fillColor=none;align=center;verticalAlign=middle;whiteSpace=wrap;rounded=0;" parent="1" vertex="1">
          <mxGeometry x="601.61" y="1199" width="60" height="30" as="geometry" />
        </mxCell>
        <mxCell id="tl9KZuzmo9LQeoau1raO-22" style="edgeStyle=orthogonalEdgeStyle;rounded=0;orthogonalLoop=1;jettySize=auto;html=1;" parent="1" source="tl9KZuzmo9LQeoau1raO-19" target="tl9KZuzmo9LQeoau1raO-20" edge="1">
          <mxGeometry relative="1" as="geometry" />
        </mxCell>
        <mxCell id="tl9KZuzmo9LQeoau1raO-19" value="Clue 1&amp;nbsp;&lt;br&gt;Dreaming&lt;br&gt;Ort: Mansion&lt;br&gt;&lt;br&gt;Rosalia: &quot;Du hast mir nicht vorzuschreiben in wen ich mich verliebe!&quot;&lt;br&gt;Rosalias Mutter: &quot;Es geht doch hier auch nicht um Liebe!... Sondern um deine Verpflichtung gegenüber der Familie&quot;&lt;br&gt;Rosalia: &quot;Ich habe mir nicht ausgesucht in welche Familie ich geboren werde! Aber ich werde mir meinen Ehemann selber aussuchen!&quot;&lt;br&gt;Mutter: &quot;Wenn du dich nicht sofort beruhigst und Julius heiratest will ich dich nie wieder mehr hier sehen! .... Wir haben euch einander versprochen und du Julius leibt dich!&quot;&lt;br&gt;Rosalia: &quot;Pff der hat doch keine Ahnung von Liebe!... Ich werde gehen, wenn du das nicht akzeptierst&quot;&lt;br&gt;Mutter: &quot;Dann verschwinde doch, aber du wist wieder zurück kommen da bin ich mir sicher!&quot;&lt;br&gt;Rosalia: &quot;Darauf würde ich nicht wetten!&quot;&lt;br&gt;" style="rounded=0;whiteSpace=wrap;html=1;" parent="1" vertex="1">
          <mxGeometry x="-600" y="1440" width="660" height="270" as="geometry" />
        </mxCell>
        <mxCell id="tl9KZuzmo9LQeoau1raO-28" style="edgeStyle=orthogonalEdgeStyle;rounded=0;orthogonalLoop=1;jettySize=auto;html=1;entryX=0.5;entryY=0;entryDx=0;entryDy=0;" parent="1" source="tl9KZuzmo9LQeoau1raO-20" target="tl9KZuzmo9LQeoau1raO-24" edge="1">
          <mxGeometry relative="1" as="geometry" />
        </mxCell>
        <mxCell id="tl9KZuzmo9LQeoau1raO-20" value="Nächster Morgen&lt;br&gt;Ort: Schlafzimmer&lt;br&gt;&lt;br&gt;N: &quot;Du ziehst dich an um runter zu deiner Familie zu gehen&quot;&lt;br&gt;&lt;br&gt;&lt;br&gt;Ort: Küche&lt;br&gt;&lt;br&gt;Mom: &quot;Guten Morgen Rosi, hast du gut geschlafen?&quot;&lt;br&gt;&lt;br&gt;Rosi: &quot;Ehm ja ich denke&quot;.&lt;br&gt;Mom: &quot;Soll ich dir etwas zum Frühstück vorbereiten?&quot;&amp;nbsp;" style="rounded=0;whiteSpace=wrap;html=1;" parent="1" vertex="1">
          <mxGeometry x="88.51" y="1840" width="660" height="290" as="geometry" />
        </mxCell>
        <mxCell id="tl9KZuzmo9LQeoau1raO-35" style="edgeStyle=orthogonalEdgeStyle;rounded=0;orthogonalLoop=1;jettySize=auto;html=1;" parent="1" source="tl9KZuzmo9LQeoau1raO-24" target="tl9KZuzmo9LQeoau1raO-33" edge="1">
          <mxGeometry relative="1" as="geometry">
            <Array as="points">
              <mxPoint x="420" y="2405" />
            </Array>
          </mxGeometry>
        </mxCell>
        <mxCell id="tl9KZuzmo9LQeoau1raO-36" style="edgeStyle=orthogonalEdgeStyle;rounded=0;orthogonalLoop=1;jettySize=auto;html=1;" parent="1" edge="1">
          <mxGeometry relative="1" as="geometry">
            <mxPoint x="377.75" y="2264.08" as="sourcePoint" />
            <mxPoint x="10" y="2264" as="targetPoint" />
            <Array as="points">
              <mxPoint x="20" y="2264.08" />
            </Array>
          </mxGeometry>
        </mxCell>
        <mxCell id="tl9KZuzmo9LQeoau1raO-39" style="edgeStyle=orthogonalEdgeStyle;rounded=0;orthogonalLoop=1;jettySize=auto;html=1;entryX=0;entryY=0.108;entryDx=0;entryDy=0;entryPerimeter=0;" parent="1" source="tl9KZuzmo9LQeoau1raO-24" edge="1">
          <mxGeometry relative="1" as="geometry">
            <mxPoint x="860" y="2259.96" as="targetPoint" />
          </mxGeometry>
        </mxCell>
        <mxCell id="tl9KZuzmo9LQeoau1raO-24" value="Entscheidung" style="rhombus;whiteSpace=wrap;html=1;" parent="1" vertex="1">
          <mxGeometry x="367.75" y="2210" width="101.49" height="100" as="geometry" />
        </mxCell>
        <mxCell id="tl9KZuzmo9LQeoau1raO-25" value="Nein danke, ich habe gerade keinen großen Hunger" style="text;html=1;strokeColor=none;fillColor=none;align=center;verticalAlign=middle;whiteSpace=wrap;rounded=0;" parent="1" vertex="1">
          <mxGeometry x="185" y="2220" width="130" height="30" as="geometry" />
        </mxCell>
        <mxCell id="tl9KZuzmo9LQeoau1raO-27" value="&lt;span style=&quot;font-size: 18px;&quot;&gt;&lt;b&gt;-10P&lt;/b&gt;&lt;/span&gt;" style="text;html=1;strokeColor=none;fillColor=none;align=center;verticalAlign=middle;whiteSpace=wrap;rounded=0;" parent="1" vertex="1">
          <mxGeometry x="615" y="2270" width="60" height="30" as="geometry" />
        </mxCell>
        <mxCell id="tl9KZuzmo9LQeoau1raO-29" value="nur einen Apfel bitte" style="text;html=1;strokeColor=none;fillColor=none;align=center;verticalAlign=middle;whiteSpace=wrap;rounded=0;" parent="1" vertex="1">
          <mxGeometry x="173.39" y="2370" width="163.22" height="30" as="geometry" />
        </mxCell>
        <mxCell id="tl9KZuzmo9LQeoau1raO-30" value="&lt;font style=&quot;font-size: 18px;&quot;&gt;&lt;b&gt;+10P&lt;/b&gt;&lt;/font&gt;" style="text;html=1;strokeColor=none;fillColor=none;align=center;verticalAlign=middle;whiteSpace=wrap;rounded=0;" parent="1" vertex="1">
          <mxGeometry x="220" y="2410" width="60" height="30" as="geometry" />
        </mxCell>
        <mxCell id="tl9KZuzmo9LQeoau1raO-31" value="Ja gerne, würdest du mir ein Spiegelei zubereiten?" style="text;html=1;strokeColor=none;fillColor=none;align=center;verticalAlign=middle;whiteSpace=wrap;rounded=0;" parent="1" vertex="1">
          <mxGeometry x="580" y="2220" width="130" height="30" as="geometry" />
        </mxCell>
        <mxCell id="tl9KZuzmo9LQeoau1raO-149" style="edgeStyle=orthogonalEdgeStyle;rounded=0;orthogonalLoop=1;jettySize=auto;html=1;entryX=0.5;entryY=0;entryDx=0;entryDy=0;" parent="1" source="tl9KZuzmo9LQeoau1raO-33" target="tl9KZuzmo9LQeoau1raO-41" edge="1">
          <mxGeometry relative="1" as="geometry" />
        </mxCell>
        <mxCell id="tl9KZuzmo9LQeoau1raO-33" value="PartnerInCrime Treffen&lt;br&gt;Ort: Küche&lt;br&gt;&lt;br&gt;Rosi: &quot;Ich würde gerne in den Blumengarten gehen und bisschen Zeichnen&quot;&lt;br&gt;Mom: &quot;Alles klar mein Schatz, pass auf dich auf&quot;&lt;br&gt;Rosi: &quot;Mach ich, bis dann!&quot;&lt;br&gt;&lt;br&gt;Ort: Blumengarten&lt;br&gt;&lt;br&gt;Rosi: &quot;Endlich wieder hier, wie ich diesen Garten vermisst habe&quot;&lt;br&gt;Rosi: &quot;Perfekt, meine Lieblingsbank ist frei&quot;&lt;br&gt;N: &quot;Du setzt dich auf die Bank und nimmst einen großen Atemzug, um die Düfte der Blumen aufzunehmen&quot;&lt;br&gt;N: &quot; Du überlegst was du malen sollst?&quot;" style="rounded=0;whiteSpace=wrap;html=1;" parent="1" vertex="1">
          <mxGeometry x="-610" y="2220" width="620" height="240" as="geometry" />
        </mxCell>
        <mxCell id="tl9KZuzmo9LQeoau1raO-150" style="edgeStyle=orthogonalEdgeStyle;rounded=0;orthogonalLoop=1;jettySize=auto;html=1;entryX=0.25;entryY=0;entryDx=0;entryDy=0;" parent="1" source="tl9KZuzmo9LQeoau1raO-41" target="tl9KZuzmo9LQeoau1raO-47" edge="1">
          <mxGeometry relative="1" as="geometry">
            <Array as="points">
              <mxPoint x="-462" y="2560" />
            </Array>
          </mxGeometry>
        </mxCell>
        <mxCell id="tl9KZuzmo9LQeoau1raO-151" style="edgeStyle=orthogonalEdgeStyle;rounded=0;orthogonalLoop=1;jettySize=auto;html=1;entryX=0.75;entryY=0;entryDx=0;entryDy=0;" parent="1" source="tl9KZuzmo9LQeoau1raO-41" target="tl9KZuzmo9LQeoau1raO-47" edge="1">
          <mxGeometry relative="1" as="geometry">
            <Array as="points">
              <mxPoint x="-137" y="2560" />
            </Array>
          </mxGeometry>
        </mxCell>
        <mxCell id="tl9KZuzmo9LQeoau1raO-41" value="Entscheidung" style="rhombus;whiteSpace=wrap;html=1;" parent="1" vertex="1">
          <mxGeometry x="-352.08000000000004" y="2510" width="101.49" height="100" as="geometry" />
        </mxCell>
        <mxCell id="tl9KZuzmo9LQeoau1raO-42" value="Ein Portrait von Rosalia" style="text;html=1;strokeColor=none;fillColor=none;align=center;verticalAlign=middle;whiteSpace=wrap;rounded=0;" parent="1" vertex="1">
          <mxGeometry x="-539.83" y="2510" width="130" height="30" as="geometry" />
        </mxCell>
        <mxCell id="tl9KZuzmo9LQeoau1raO-43" value="Die Biene die es sich gerade auf einer Rose bequem gemacht hat" style="text;html=1;strokeColor=none;fillColor=none;align=center;verticalAlign=middle;whiteSpace=wrap;rounded=0;" parent="1" vertex="1">
          <mxGeometry x="-231.67000000000002" y="2510" width="163.22" height="30" as="geometry" />
        </mxCell>
        <mxCell id="tl9KZuzmo9LQeoau1raO-44" value="&lt;font style=&quot;font-size: 18px;&quot;&gt;&lt;b&gt;+10P&lt;/b&gt;&lt;/font&gt;" style="text;html=1;strokeColor=none;fillColor=none;align=center;verticalAlign=middle;whiteSpace=wrap;rounded=0;" parent="1" vertex="1">
          <mxGeometry x="-133.77000000000004" y="2580" width="60" height="30" as="geometry" />
        </mxCell>
        <mxCell id="tl9KZuzmo9LQeoau1raO-45" value="&lt;span style=&quot;font-size: 18px;&quot;&gt;&lt;b&gt;-10P&lt;/b&gt;&lt;/span&gt;" style="text;html=1;strokeColor=none;fillColor=none;align=center;verticalAlign=middle;whiteSpace=wrap;rounded=0;" parent="1" vertex="1">
          <mxGeometry x="-528.22" y="2571" width="60" height="30" as="geometry" />
        </mxCell>
        <mxCell id="tl9KZuzmo9LQeoau1raO-82" style="edgeStyle=orthogonalEdgeStyle;rounded=0;orthogonalLoop=1;jettySize=auto;html=1;entryX=0.5;entryY=0;entryDx=0;entryDy=0;" parent="1" source="tl9KZuzmo9LQeoau1raO-47" target="tl9KZuzmo9LQeoau1raO-61" edge="1">
          <mxGeometry relative="1" as="geometry" />
        </mxCell>
        <mxCell id="tl9KZuzmo9LQeoau1raO-108" style="edgeStyle=orthogonalEdgeStyle;rounded=0;orthogonalLoop=1;jettySize=auto;html=1;entryX=0;entryY=0.5;entryDx=0;entryDy=0;" parent="1" source="tl9KZuzmo9LQeoau1raO-109" target="tl9KZuzmo9LQeoau1raO-50" edge="1">
          <mxGeometry relative="1" as="geometry" />
        </mxCell>
        <mxCell id="tl9KZuzmo9LQeoau1raO-47" value="&lt;br&gt;Transition: Herzen&lt;br&gt;&lt;br&gt;N: &quot;Du bist so in dein Bild vertieft, dass dir gar nicht aufgefallen ist, dass sich jemand neben dich gesetzt.hat&quot;&lt;br&gt;R: &quot;Huch...Ach du meine Güte hast du mich erschrocken!.... Wie lange sitzt du denn schon hier?&lt;br&gt;Sitzpartner: &quot;Schon ein Weile.... Ich hab dir ein bisschen beim zeichnen zu geschaut.&lt;br&gt;Sitzpartner: &quot;Ich hoffe du findest das jetzt nicht komisch&quot;&lt;br&gt;Rosi: &quot;Vielleicht ein bisschen hihihihi... aber es freut mich dich zu sehen&amp;nbsp;[INPUT]&lt;br&gt;.&quot;&lt;br&gt;If (portrait)&lt;br&gt;PIC: &quot;Bist du das auf deiner Zeichnung?&quot;&lt;br&gt;Rosi: &quot;Nein, das soll meine Urgroßmutter sein, ich sehe ihr nur sehr ähnlich, außer dass sie viel Hübscher ist als ich&quot;&lt;br&gt;PIC: &quot;Ich finde dich auch sehr hübsch&quot;&lt;br&gt;&lt;br&gt;&lt;br&gt;&lt;br&gt;&lt;br&gt;&lt;br&gt;&lt;br&gt;&amp;nbsp;&lt;br&gt;if(Bee)&lt;br&gt;PIC: &quot;mir gefällt deine Zeichnung, sieht sehr schön aus.&quot;&lt;br&gt;Rosi: &quot;Danke.&quot;&lt;br&gt;&lt;br&gt;PIC: &quot;Wie geht es dir?&quot;" style="rounded=0;whiteSpace=wrap;html=1;" parent="1" vertex="1">
          <mxGeometry x="-625" y="2683" width="650" height="377" as="geometry" />
        </mxCell>
        <mxCell id="tl9KZuzmo9LQeoau1raO-112" style="edgeStyle=orthogonalEdgeStyle;rounded=0;orthogonalLoop=1;jettySize=auto;html=1;entryX=0;entryY=0.25;entryDx=0;entryDy=0;" parent="1" source="tl9KZuzmo9LQeoau1raO-50" target="tl9KZuzmo9LQeoau1raO-47" edge="1">
          <mxGeometry relative="1" as="geometry" />
        </mxCell>
        <mxCell id="tl9KZuzmo9LQeoau1raO-50" value="METABAR einfügen" style="rounded=1;whiteSpace=wrap;html=1;" parent="1" vertex="1">
          <mxGeometry x="-780" y="2730" width="120" height="60" as="geometry" />
        </mxCell>
        <mxCell id="tl9KZuzmo9LQeoau1raO-55" style="edgeStyle=orthogonalEdgeStyle;rounded=0;orthogonalLoop=1;jettySize=auto;html=1;" parent="1" source="tl9KZuzmo9LQeoau1raO-54" target="tl9KZuzmo9LQeoau1raO-52" edge="1">
          <mxGeometry relative="1" as="geometry" />
        </mxCell>
        <mxCell id="tl9KZuzmo9LQeoau1raO-56" style="edgeStyle=orthogonalEdgeStyle;rounded=0;orthogonalLoop=1;jettySize=auto;html=1;" parent="1" source="tl9KZuzmo9LQeoau1raO-51" target="tl9KZuzmo9LQeoau1raO-53" edge="1">
          <mxGeometry relative="1" as="geometry" />
        </mxCell>
        <mxCell id="tl9KZuzmo9LQeoau1raO-51" value="&lt;font style=&quot;font-size: 9px;&quot;&gt;Entscheidung&lt;/font&gt;" style="rhombus;whiteSpace=wrap;html=1;" parent="1" vertex="1">
          <mxGeometry x="-330.04" y="2892" width="60.74" height="60" as="geometry" />
        </mxCell>
        <mxCell id="tl9KZuzmo9LQeoau1raO-52" value="Danke, dass ist sehr nett von dir&amp;nbsp;" style="text;html=1;strokeColor=none;fillColor=none;align=center;verticalAlign=middle;whiteSpace=wrap;rounded=0;" parent="1" vertex="1">
          <mxGeometry x="-213.05999999999997" y="2914.5" width="99.25" height="15" as="geometry" />
        </mxCell>
        <mxCell id="tl9KZuzmo9LQeoau1raO-53" value="ignorieren" style="text;html=1;strokeColor=none;fillColor=none;align=center;verticalAlign=middle;whiteSpace=wrap;rounded=0;" parent="1" vertex="1">
          <mxGeometry x="-462.67" y="2914.5" width="99.25" height="15" as="geometry" />
        </mxCell>
        <mxCell id="tl9KZuzmo9LQeoau1raO-77" style="edgeStyle=orthogonalEdgeStyle;rounded=0;orthogonalLoop=1;jettySize=auto;html=1;" parent="1" source="tl9KZuzmo9LQeoau1raO-66" target="tl9KZuzmo9LQeoau1raO-75" edge="1">
          <mxGeometry relative="1" as="geometry">
            <Array as="points">
              <mxPoint x="-485" y="3140" />
            </Array>
          </mxGeometry>
        </mxCell>
        <mxCell id="tl9KZuzmo9LQeoau1raO-78" style="edgeStyle=orthogonalEdgeStyle;rounded=0;orthogonalLoop=1;jettySize=auto;html=1;" parent="1" source="tl9KZuzmo9LQeoau1raO-61" target="tl9KZuzmo9LQeoau1raO-76" edge="1">
          <mxGeometry relative="1" as="geometry">
            <Array as="points">
              <mxPoint x="-115" y="3140" />
            </Array>
          </mxGeometry>
        </mxCell>
        <mxCell id="tl9KZuzmo9LQeoau1raO-61" value="Entscheidung" style="rhombus;whiteSpace=wrap;html=1;" parent="1" vertex="1">
          <mxGeometry x="-350.74" y="3090" width="101.49" height="100" as="geometry" />
        </mxCell>
        <mxCell id="tl9KZuzmo9LQeoau1raO-62" value="Von Opas Tod erzählen" style="text;html=1;strokeColor=none;fillColor=none;align=center;verticalAlign=middle;whiteSpace=wrap;rounded=0;" parent="1" vertex="1">
          <mxGeometry x="-480.74" y="3140" width="130" height="30" as="geometry" />
        </mxCell>
        <mxCell id="tl9KZuzmo9LQeoau1raO-64" value="&lt;font style=&quot;font-size: 18px;&quot;&gt;&lt;b&gt;+10P&lt;/b&gt;&lt;/font&gt;" style="text;html=1;strokeColor=none;fillColor=none;align=center;verticalAlign=middle;whiteSpace=wrap;rounded=0;" parent="1" vertex="1">
          <mxGeometry x="-445.74" y="3100" width="60" height="30" as="geometry" />
        </mxCell>
        <mxCell id="tl9KZuzmo9LQeoau1raO-65" value="alles ok" style="text;html=1;strokeColor=none;fillColor=none;align=center;verticalAlign=middle;whiteSpace=wrap;rounded=0;" parent="1" vertex="1">
          <mxGeometry x="-249.25" y="3140" width="130" height="30" as="geometry" />
        </mxCell>
        <mxCell id="tl9KZuzmo9LQeoau1raO-67" value="&lt;span style=&quot;font-size: 18px;&quot;&gt;&lt;b&gt;-10P&lt;/b&gt;&lt;/span&gt;" style="text;html=1;strokeColor=none;fillColor=none;align=center;verticalAlign=middle;whiteSpace=wrap;rounded=0;" parent="1" vertex="1">
          <mxGeometry x="-214.25" y="3100" width="60" height="30" as="geometry" />
        </mxCell>
        <mxCell id="tl9KZuzmo9LQeoau1raO-97" style="edgeStyle=orthogonalEdgeStyle;rounded=0;orthogonalLoop=1;jettySize=auto;html=1;entryX=0.5;entryY=0;entryDx=0;entryDy=0;" parent="1" source="tl9KZuzmo9LQeoau1raO-114" target="tl9KZuzmo9LQeoau1raO-81" edge="1">
          <mxGeometry relative="1" as="geometry">
            <Array as="points">
              <mxPoint x="-476" y="3560" />
            </Array>
          </mxGeometry>
        </mxCell>
        <mxCell id="tl9KZuzmo9LQeoau1raO-98" style="edgeStyle=orthogonalEdgeStyle;rounded=0;orthogonalLoop=1;jettySize=auto;html=1;" parent="1" source="tl9KZuzmo9LQeoau1raO-69" target="tl9KZuzmo9LQeoau1raO-83" edge="1">
          <mxGeometry relative="1" as="geometry">
            <Array as="points">
              <mxPoint x="-94" y="3560" />
            </Array>
          </mxGeometry>
        </mxCell>
        <mxCell id="tl9KZuzmo9LQeoau1raO-69" value="Entscheidung" style="rhombus;whiteSpace=wrap;html=1;" parent="1" vertex="1">
          <mxGeometry x="-339.13" y="3510" width="101.49" height="100" as="geometry" />
        </mxCell>
        <mxCell id="tl9KZuzmo9LQeoau1raO-70" value="Von Tagebuch erzählen" style="text;html=1;strokeColor=none;fillColor=none;align=center;verticalAlign=middle;whiteSpace=wrap;rounded=0;" parent="1" vertex="1">
          <mxGeometry x="-469.13" y="3560" width="130" height="30" as="geometry" />
        </mxCell>
        <mxCell id="tl9KZuzmo9LQeoau1raO-71" value="&lt;font style=&quot;font-size: 18px;&quot;&gt;&lt;b&gt;+10P&lt;/b&gt;&lt;/font&gt;" style="text;html=1;strokeColor=none;fillColor=none;align=center;verticalAlign=middle;whiteSpace=wrap;rounded=0;" parent="1" vertex="1">
          <mxGeometry x="-436.61" y="3530" width="60" height="30" as="geometry" />
        </mxCell>
        <mxCell id="tl9KZuzmo9LQeoau1raO-73" value="&lt;span style=&quot;font-size: 18px;&quot;&gt;&lt;b&gt;-10P&lt;/b&gt;&lt;/span&gt;" style="text;html=1;strokeColor=none;fillColor=none;align=center;verticalAlign=middle;whiteSpace=wrap;rounded=0;" parent="1" vertex="1">
          <mxGeometry x="-200" y="3530" width="60" height="30" as="geometry" />
        </mxCell>
        <mxCell id="tl9KZuzmo9LQeoau1raO-74" value="nicht erzählen" style="text;html=1;strokeColor=none;fillColor=none;align=center;verticalAlign=middle;whiteSpace=wrap;rounded=0;" parent="1" vertex="1">
          <mxGeometry x="-235" y="3560" width="130" height="30" as="geometry" />
        </mxCell>
        <mxCell id="tl9KZuzmo9LQeoau1raO-79" style="edgeStyle=orthogonalEdgeStyle;rounded=0;orthogonalLoop=1;jettySize=auto;html=1;" parent="1" source="tl9KZuzmo9LQeoau1raO-75" target="tl9KZuzmo9LQeoau1raO-69" edge="1">
          <mxGeometry relative="1" as="geometry" />
        </mxCell>
        <mxCell id="tl9KZuzmo9LQeoau1raO-75" value="Rosi: &quot;Mein Opa ist gestern verstorben... dementsprechend bin ich eher etwas betrübt.&lt;br&gt;PIC: &quot;Oh das tut mir leid, mein herzliches Beileid... standest du ihm sehr nah?&quot;&lt;br&gt;Rosi: &quot;Ja schon, da ich seiner Mutter sehr ähnliche sehe hat er mich immer etwas bevorzugt.&quot;" style="rounded=0;whiteSpace=wrap;html=1;" parent="1" vertex="1">
          <mxGeometry x="-638.76" y="3260" width="308.39" height="120" as="geometry" />
        </mxCell>
        <mxCell id="tl9KZuzmo9LQeoau1raO-80" style="edgeStyle=orthogonalEdgeStyle;rounded=0;orthogonalLoop=1;jettySize=auto;html=1;entryX=0.5;entryY=0;entryDx=0;entryDy=0;" parent="1" source="tl9KZuzmo9LQeoau1raO-76" target="tl9KZuzmo9LQeoau1raO-69" edge="1">
          <mxGeometry relative="1" as="geometry" />
        </mxCell>
        <mxCell id="tl9KZuzmo9LQeoau1raO-76" value="Rosi: &quot;ganz ok eigentlich, nichts besonderes... und wie geht es dir?&lt;br&gt;PIC: &quot;auch ganz gut&quot;" style="rounded=0;whiteSpace=wrap;html=1;" parent="1" vertex="1">
          <mxGeometry x="-269.63" y="3260" width="308.39" height="120" as="geometry" />
        </mxCell>
        <mxCell id="tl9KZuzmo9LQeoau1raO-95" style="edgeStyle=orthogonalEdgeStyle;rounded=0;orthogonalLoop=1;jettySize=auto;html=1;" parent="1" source="tl9KZuzmo9LQeoau1raO-81" target="tl9KZuzmo9LQeoau1raO-90" edge="1">
          <mxGeometry relative="1" as="geometry" />
        </mxCell>
        <mxCell id="tl9KZuzmo9LQeoau1raO-81" value="N: &quot; du erzählst ihm alles was dir dein Opa über Rosalia erzählt hat und das sie plötzlich verschwunden ist.&amp;nbsp;&amp;nbsp;&lt;br&gt;PIC:&quot; Wow das klingt aber sehr spannend und nach einem großen Abenteuer.... Wenn du etwas Unterstützung brauchst, bin ich nur ein Anruf entfernt.&quot;&lt;br&gt;PIC: &quot;Ich würde dann aber wieder weiter gehen.. es war schön dich wieder zu sehen Rosi&quot;" style="rounded=0;whiteSpace=wrap;html=1;" parent="1" vertex="1">
          <mxGeometry x="-630" y="3660" width="308.39" height="120" as="geometry" />
        </mxCell>
        <mxCell id="tl9KZuzmo9LQeoau1raO-96" style="edgeStyle=orthogonalEdgeStyle;rounded=0;orthogonalLoop=1;jettySize=auto;html=1;" parent="1" source="tl9KZuzmo9LQeoau1raO-83" target="tl9KZuzmo9LQeoau1raO-90" edge="1">
          <mxGeometry relative="1" as="geometry" />
        </mxCell>
        <mxCell id="tl9KZuzmo9LQeoau1raO-83" value="PIC: &quot;Na dann, lass ich dich mal wieder alleine zeichnen... Hat mich gefreut dich wieder zu sehen Rosalia&lt;br&gt;Rosi: &quot;Gleichfalls, machs gut PIC" style="rounded=0;whiteSpace=wrap;html=1;" parent="1" vertex="1">
          <mxGeometry x="-248.39" y="3660" width="308.39" height="120" as="geometry" />
        </mxCell>
        <mxCell id="tl9KZuzmo9LQeoau1raO-101" style="edgeStyle=orthogonalEdgeStyle;rounded=0;orthogonalLoop=1;jettySize=auto;html=1;entryX=0.75;entryY=0;entryDx=0;entryDy=0;" parent="1" source="tl9KZuzmo9LQeoau1raO-90" target="tl9KZuzmo9LQeoau1raO-100" edge="1">
          <mxGeometry relative="1" as="geometry">
            <Array as="points">
              <mxPoint x="-114" y="3900" />
              <mxPoint x="-114" y="4120" />
              <mxPoint x="-205" y="4120" />
            </Array>
          </mxGeometry>
        </mxCell>
        <mxCell id="tl9KZuzmo9LQeoau1raO-102" style="edgeStyle=orthogonalEdgeStyle;rounded=0;orthogonalLoop=1;jettySize=auto;html=1;entryX=0.469;entryY=0.001;entryDx=0;entryDy=0;entryPerimeter=0;" parent="1" source="tl9KZuzmo9LQeoau1raO-90" target="tl9KZuzmo9LQeoau1raO-99" edge="1">
          <mxGeometry relative="1" as="geometry">
            <Array as="points">
              <mxPoint x="-465" y="3900" />
            </Array>
          </mxGeometry>
        </mxCell>
        <mxCell id="tl9KZuzmo9LQeoau1raO-90" value="Entscheidung" style="rhombus;whiteSpace=wrap;html=1;" parent="1" vertex="1">
          <mxGeometry x="-339.13" y="3850" width="101.49" height="100" as="geometry" />
        </mxCell>
        <mxCell id="tl9KZuzmo9LQeoau1raO-91" value="Tagebuch weiterlesen" style="text;html=1;strokeColor=none;fillColor=none;align=center;verticalAlign=middle;whiteSpace=wrap;rounded=0;" parent="1" vertex="1">
          <mxGeometry x="-463" y="3900" width="130" height="30" as="geometry" />
        </mxCell>
        <mxCell id="tl9KZuzmo9LQeoau1raO-92" value="&lt;font style=&quot;font-size: 18px;&quot;&gt;&lt;b&gt;+10P&lt;/b&gt;&lt;/font&gt;" style="text;html=1;strokeColor=none;fillColor=none;align=center;verticalAlign=middle;whiteSpace=wrap;rounded=0;" parent="1" vertex="1">
          <mxGeometry x="-436.61" y="3860" width="60" height="30" as="geometry" />
        </mxCell>
        <mxCell id="tl9KZuzmo9LQeoau1raO-93" value="&lt;span style=&quot;font-size: 18px;&quot;&gt;&lt;b&gt;-10P&lt;/b&gt;&lt;/span&gt;" style="text;html=1;strokeColor=none;fillColor=none;align=center;verticalAlign=middle;whiteSpace=wrap;rounded=0;" parent="1" vertex="1">
          <mxGeometry x="-213.39" y="3860" width="60" height="30" as="geometry" />
        </mxCell>
        <mxCell id="tl9KZuzmo9LQeoau1raO-94" value="nach Hause gehen" style="text;html=1;strokeColor=none;fillColor=none;align=center;verticalAlign=middle;whiteSpace=wrap;rounded=0;" parent="1" vertex="1">
          <mxGeometry x="-248.39" y="3900" width="130" height="30" as="geometry" />
        </mxCell>
        <mxCell id="tl9KZuzmo9LQeoau1raO-103" style="edgeStyle=orthogonalEdgeStyle;rounded=0;orthogonalLoop=1;jettySize=auto;html=1;entryX=0.5;entryY=0;entryDx=0;entryDy=0;" parent="1" source="tl9KZuzmo9LQeoau1raO-99" target="tl9KZuzmo9LQeoau1raO-100" edge="1">
          <mxGeometry relative="1" as="geometry" />
        </mxCell>
        <mxCell id="tl9KZuzmo9LQeoau1raO-99" value="Verschwinden Rosalia&lt;br&gt;Tagebuch Verschwinden --&amp;gt; Item&lt;br&gt;&lt;br&gt;Rosi lesen: &quot;30.August 1887. Rosalia musste heute etwas länger arbeiten, deswegen habe ich auf unseren kleinen Jungen aufgepasst. Um seiner Mutter etwas näher zu sein, haben wir uns dafür entschieden den Abend im Blumengarten zu verbringen und sie dort zu treffen. Wir haben gewartet und gewartet, doch sie kam nicht. Nach einer Weile, wurde unser Junge quenglig und müde und wir sind nach Hause gegangen. Sie ist seitdem nicht nach Hause gekommen... Ich mache mir Sorgen. Ich hoffe Sie ist nicht mit diesem Julius abgehauen, das wird sie mir sonst noch büßen.&quot;" style="rounded=0;whiteSpace=wrap;html=1;" parent="1" vertex="1">
          <mxGeometry x="-630" y="4000" width="350" height="200" as="geometry" />
        </mxCell>
        <mxCell id="tl9KZuzmo9LQeoau1raO-123" style="edgeStyle=orthogonalEdgeStyle;rounded=0;orthogonalLoop=1;jettySize=auto;html=1;entryX=0.5;entryY=0;entryDx=0;entryDy=0;" parent="1" source="tl9KZuzmo9LQeoau1raO-100" target="tl9KZuzmo9LQeoau1raO-118" edge="1">
          <mxGeometry relative="1" as="geometry" />
        </mxCell>
        <mxCell id="tl9KZuzmo9LQeoau1raO-100" value="Ankunft Zuhause&lt;br&gt;Ort: Wohnzimmer&lt;br&gt;&lt;br&gt;Rosi: Hallo Mama, ich bin wieder Zuhause.&quot;&lt;br&gt;Mom: &quot;Ah, Hallo mein Schatz, hattest du einen schönen Tag?&quot;&lt;br&gt;Rosi: &quot;Ja, ich liebe diesen Blumengarten wirklich sehr&quot;" style="rounded=0;whiteSpace=wrap;html=1;" parent="1" vertex="1">
          <mxGeometry x="-436.61" y="4270" width="308.39" height="120" as="geometry" />
        </mxCell>
        <mxCell id="tl9KZuzmo9LQeoau1raO-104" value="" style="edgeStyle=orthogonalEdgeStyle;rounded=0;orthogonalLoop=1;jettySize=auto;html=1;" parent="1" source="tl9KZuzmo9LQeoau1raO-61" target="tl9KZuzmo9LQeoau1raO-66" edge="1">
          <mxGeometry relative="1" as="geometry">
            <mxPoint x="-351" y="3140" as="sourcePoint" />
            <mxPoint x="-485" y="3260" as="targetPoint" />
            <Array as="points" />
          </mxGeometry>
        </mxCell>
        <mxCell id="tl9KZuzmo9LQeoau1raO-66" value="" style="shape=mxgraph.signs.healthcare.heart_1;html=1;pointerEvents=1;fillColor=#000000;strokeColor=none;verticalLabelPosition=bottom;verticalAlign=top;align=center;" parent="1" vertex="1">
          <mxGeometry x="-494.57" y="3130" width="20" height="20" as="geometry" />
        </mxCell>
        <mxCell id="tl9KZuzmo9LQeoau1raO-107" value="" style="edgeStyle=orthogonalEdgeStyle;rounded=0;orthogonalLoop=1;jettySize=auto;html=1;" parent="1" source="tl9KZuzmo9LQeoau1raO-51" target="tl9KZuzmo9LQeoau1raO-54" edge="1">
          <mxGeometry relative="1" as="geometry">
            <mxPoint x="-270" y="2892" as="sourcePoint" />
            <mxPoint x="-213" y="2892" as="targetPoint" />
          </mxGeometry>
        </mxCell>
        <mxCell id="tl9KZuzmo9LQeoau1raO-54" value="" style="shape=mxgraph.signs.healthcare.heart_1;html=1;pointerEvents=1;fillColor=#000000;strokeColor=none;verticalLabelPosition=bottom;verticalAlign=top;align=center;" parent="1" vertex="1">
          <mxGeometry x="-257.31" y="2914.5" width="20" height="20" as="geometry" />
        </mxCell>
        <mxCell id="tl9KZuzmo9LQeoau1raO-109" value="" style="shape=mxgraph.signs.healthcare.heart_1;html=1;pointerEvents=1;fillColor=#000000;strokeColor=none;verticalLabelPosition=bottom;verticalAlign=top;align=center;" parent="1" vertex="1">
          <mxGeometry x="-850" y="2763" width="50" height="47" as="geometry" />
        </mxCell>
        <mxCell id="tl9KZuzmo9LQeoau1raO-115" value="" style="edgeStyle=orthogonalEdgeStyle;rounded=0;orthogonalLoop=1;jettySize=auto;html=1;entryX=0.5;entryY=0;entryDx=0;entryDy=0;" parent="1" source="tl9KZuzmo9LQeoau1raO-69" target="tl9KZuzmo9LQeoau1raO-114" edge="1">
          <mxGeometry relative="1" as="geometry">
            <mxPoint x="-339" y="3560" as="sourcePoint" />
            <mxPoint x="-476" y="3660" as="targetPoint" />
            <Array as="points">
              <mxPoint x="-479" y="3560" />
            </Array>
          </mxGeometry>
        </mxCell>
        <mxCell id="tl9KZuzmo9LQeoau1raO-114" value="" style="shape=mxgraph.signs.healthcare.heart_1;html=1;pointerEvents=1;fillColor=#000000;strokeColor=none;verticalLabelPosition=bottom;verticalAlign=top;align=center;" parent="1" vertex="1">
          <mxGeometry x="-489.13" y="3550" width="20" height="20" as="geometry" />
        </mxCell>
        <mxCell id="tl9KZuzmo9LQeoau1raO-117" style="edgeStyle=orthogonalEdgeStyle;rounded=0;orthogonalLoop=1;jettySize=auto;html=1;" parent="1" source="tl9KZuzmo9LQeoau1raO-118" target="m0jVCM9L-4Xvr7T7UgM1-1" edge="1">
          <mxGeometry relative="1" as="geometry">
            <mxPoint x="-750" y="4610" as="targetPoint" />
            <Array as="points">
              <mxPoint x="-590" y="4500" />
            </Array>
          </mxGeometry>
        </mxCell>
        <mxCell id="tl9KZuzmo9LQeoau1raO-118" value="Entscheidung" style="rhombus;whiteSpace=wrap;html=1;" parent="1" vertex="1">
          <mxGeometry x="-333.15999999999997" y="4450" width="101.49" height="100" as="geometry" />
        </mxCell>
        <mxCell id="tl9KZuzmo9LQeoau1raO-119" value="Mom vom Tagebuch erzählen" style="text;html=1;strokeColor=none;fillColor=none;align=center;verticalAlign=middle;whiteSpace=wrap;rounded=0;" parent="1" vertex="1">
          <mxGeometry x="-458.75" y="4500" width="130" height="30" as="geometry" />
        </mxCell>
        <mxCell id="tl9KZuzmo9LQeoau1raO-120" value="&lt;font style=&quot;font-size: 18px;&quot;&gt;&lt;b&gt;+10P&lt;/b&gt;&lt;/font&gt;" style="text;html=1;strokeColor=none;fillColor=none;align=center;verticalAlign=middle;whiteSpace=wrap;rounded=0;" parent="1" vertex="1">
          <mxGeometry x="-432.36" y="4460" width="60" height="30" as="geometry" />
        </mxCell>
        <mxCell id="tl9KZuzmo9LQeoau1raO-121" value="&lt;span style=&quot;font-size: 18px;&quot;&gt;&lt;b&gt;-10P&lt;/b&gt;&lt;/span&gt;" style="text;html=1;strokeColor=none;fillColor=none;align=center;verticalAlign=middle;whiteSpace=wrap;rounded=0;" parent="1" vertex="1">
          <mxGeometry x="-193.76999999999998" y="4460" width="60" height="30" as="geometry" />
        </mxCell>
        <mxCell id="tl9KZuzmo9LQeoau1raO-127" style="edgeStyle=orthogonalEdgeStyle;rounded=0;orthogonalLoop=1;jettySize=auto;html=1;exitX=0.918;exitY=0.5;exitDx=0;exitDy=0;exitPerimeter=0;entryX=0.5;entryY=0;entryDx=0;entryDy=0;" parent="1" source="tl9KZuzmo9LQeoau1raO-118" target="tl9KZuzmo9LQeoau1raO-125" edge="1">
          <mxGeometry relative="1" as="geometry">
            <mxPoint x="-279.99999999999955" y="4850" as="targetPoint" />
            <mxPoint x="-230" y="4510" as="sourcePoint" />
            <Array as="points">
              <mxPoint x="-160" y="4500" />
              <mxPoint x="-160" y="4830" />
              <mxPoint x="-280" y="4830" />
              <mxPoint x="-280" y="4960" />
            </Array>
          </mxGeometry>
        </mxCell>
        <mxCell id="tl9KZuzmo9LQeoau1raO-122" value="lieber nicht vom Tagebuch erzählen" style="text;html=1;strokeColor=none;fillColor=none;align=center;verticalAlign=middle;whiteSpace=wrap;rounded=0;" parent="1" vertex="1">
          <mxGeometry x="-159.19" y="4500" width="130" height="30" as="geometry" />
        </mxCell>
        <mxCell id="tl9KZuzmo9LQeoau1raO-126" style="edgeStyle=orthogonalEdgeStyle;rounded=0;orthogonalLoop=1;jettySize=auto;html=1;entryX=0.5;entryY=0;entryDx=0;entryDy=0;exitX=1.006;exitY=0.779;exitDx=0;exitDy=0;exitPerimeter=0;" parent="1" source="m0jVCM9L-4Xvr7T7UgM1-1" target="tl9KZuzmo9LQeoau1raO-125" edge="1">
          <mxGeometry relative="1" as="geometry">
            <mxPoint x="-668.521739130435" y="4930" as="sourcePoint" />
          </mxGeometry>
        </mxCell>
        <mxCell id="tl9KZuzmo9LQeoau1raO-128" style="edgeStyle=orthogonalEdgeStyle;rounded=0;orthogonalLoop=1;jettySize=auto;html=1;exitX=0.5;exitY=1;exitDx=0;exitDy=0;" parent="1" edge="1">
          <mxGeometry relative="1" as="geometry">
            <mxPoint x="-668.7142857142853" y="4950" as="targetPoint" />
            <mxPoint x="-668.5" y="4930" as="sourcePoint" />
          </mxGeometry>
        </mxCell>
        <mxCell id="tl9KZuzmo9LQeoau1raO-132" style="edgeStyle=orthogonalEdgeStyle;rounded=0;orthogonalLoop=1;jettySize=auto;html=1;entryX=0.5;entryY=0;entryDx=0;entryDy=0;" parent="1" source="tl9KZuzmo9LQeoau1raO-125" target="tl9KZuzmo9LQeoau1raO-129" edge="1">
          <mxGeometry relative="1" as="geometry" />
        </mxCell>
        <mxCell id="tl9KZuzmo9LQeoau1raO-125" value="Tagesende&lt;br&gt;Ort: Schlafzimmer&lt;br&gt;N:&quot;Du entscheidest dich dafür heute wieder etwas früher ins Bett zu gehen, der Tag hat dich doch mehr geschlaucht als du dachtest&quot;&lt;br&gt;Rosi: &quot;Phu was für ein Tag, jetzt bin ich bereit fürs schlafen.&quot;" style="rounded=0;whiteSpace=wrap;html=1;" parent="1" vertex="1">
          <mxGeometry x="-455" y="5070" width="350" height="100" as="geometry" />
        </mxCell>
        <mxCell id="tl9KZuzmo9LQeoau1raO-137" style="edgeStyle=orthogonalEdgeStyle;rounded=0;orthogonalLoop=1;jettySize=auto;html=1;entryX=0.5;entryY=0;entryDx=0;entryDy=0;" parent="1" source="tl9KZuzmo9LQeoau1raO-129" target="tl9KZuzmo9LQeoau1raO-136" edge="1">
          <mxGeometry relative="1" as="geometry" />
        </mxCell>
        <mxCell id="tl9KZuzmo9LQeoau1raO-129" value="Der Entscheidende Traum&lt;br&gt;Ort: Zirkus&amp;nbsp;&lt;br&gt;Dreaming&lt;br&gt;&lt;br&gt;Rosalia: &quot;Ich fühle mich heute richtig gut, das wird eine super Show!&quot;&lt;br&gt;&amp;nbsp;Rosalia: &quot;Bevor die Gäste kommen übe ich noch einmal die letzte Drehung&quot;&lt;br&gt;&lt;br&gt;Audio: Schrei&lt;br&gt;Audio: Poltern&lt;br&gt;&lt;br&gt;Rosalia flüsternd: &quot;Hilfe....Hilfe&lt;br&gt;Unknown: So wie du mit den Gefühlen anderer umgehst, hast du keine Hilfe verdient!&quot;" style="rounded=0;whiteSpace=wrap;html=1;" parent="1" vertex="1">
          <mxGeometry x="-503.75" y="5220" width="447.5" height="209" as="geometry" />
        </mxCell>
        <mxCell id="tl9KZuzmo9LQeoau1raO-133" value="Bad Ending&lt;br&gt;Ort: Wohnzimmer&lt;br&gt;&lt;br&gt;Novel Page&amp;nbsp;&lt;br&gt;Zeitungsartikel vom Verschwinden von Rosi" style="rounded=0;whiteSpace=wrap;html=1;fillColor=#f8cecc;strokeColor=#b85450;" parent="1" vertex="1">
          <mxGeometry x="-284.0400000000001" y="8074" width="264.41" height="140" as="geometry" />
        </mxCell>
        <mxCell id="tl9KZuzmo9LQeoau1raO-134" value="Good Endiing&lt;br&gt;Ort: Friedhof&lt;br&gt;&lt;br&gt;Novel Page&lt;br&gt;Tagebuch wie Rosi das Verschwinden von ihrer Urgroßmutter erzählt" style="rounded=0;whiteSpace=wrap;html=1;fillColor=#d5e8d4;strokeColor=#82b366;" parent="1" vertex="1">
          <mxGeometry x="855.59" y="9595" width="310" height="190" as="geometry" />
        </mxCell>
        <mxCell id="tl9KZuzmo9LQeoau1raO-135" value="Neutral Ending&lt;br&gt;Ort: Psychatrie&lt;br&gt;&lt;br&gt;Akte in der drin steht, dass Rosi verrückt geworden ist" style="rounded=0;whiteSpace=wrap;html=1;fillColor=#fff2cc;strokeColor=#d6b656;" parent="1" vertex="1">
          <mxGeometry x="-1110" y="5660.5" width="455" height="269" as="geometry" />
        </mxCell>
        <mxCell id="tl9KZuzmo9LQeoau1raO-143" style="edgeStyle=orthogonalEdgeStyle;rounded=0;orthogonalLoop=1;jettySize=auto;html=1;entryX=0.5;entryY=0;entryDx=0;entryDy=0;" parent="1" source="tl9KZuzmo9LQeoau1raO-136" target="tl9KZuzmo9LQeoau1raO-138" edge="1">
          <mxGeometry relative="1" as="geometry" />
        </mxCell>
        <mxCell id="tl9KZuzmo9LQeoau1raO-136" value="Ort: Schlafzimmer&lt;br&gt;Transition: Wet&lt;br&gt;Audio: schnaufen&lt;br&gt;&lt;br&gt;Rosi: &quot;W... W...Was.... war das?&quot;&lt;br&gt;Rosi: &quot;Mir tut alles weh&quot;&lt;br&gt;Rosi: &quot;Das können doch nicht nur Träume sein???&quot;&lt;br&gt;Rosi: &quot;Das war eindeutig Rosalia die da gefallen ist!... Aber wer war diese dunkle Gestalt?&quot;&lt;br&gt;Rosi: &quot;Ich muss das herausfinden...&amp;nbsp;" style="rounded=0;whiteSpace=wrap;html=1;" parent="1" vertex="1">
          <mxGeometry x="-503.75" y="5470" width="447.5" height="209" as="geometry" />
        </mxCell>
        <mxCell id="tl9KZuzmo9LQeoau1raO-146" style="edgeStyle=orthogonalEdgeStyle;rounded=0;orthogonalLoop=1;jettySize=auto;html=1;entryX=1;entryY=0.5;entryDx=0;entryDy=0;" parent="1" source="tl9KZuzmo9LQeoau1raO-138" target="tl9KZuzmo9LQeoau1raO-135" edge="1">
          <mxGeometry relative="1" as="geometry" />
        </mxCell>
        <mxCell id="tl9KZuzmo9LQeoau1raO-169" style="edgeStyle=orthogonalEdgeStyle;rounded=0;orthogonalLoop=1;jettySize=auto;html=1;entryX=0;entryY=0.5;entryDx=0;entryDy=0;" parent="1" source="tl9KZuzmo9LQeoau1raO-174" target="tl9KZuzmo9LQeoau1raO-168" edge="1">
          <mxGeometry relative="1" as="geometry" />
        </mxCell>
        <mxCell id="tl9KZuzmo9LQeoau1raO-171" style="edgeStyle=orthogonalEdgeStyle;rounded=0;orthogonalLoop=1;jettySize=auto;html=1;entryX=0.474;entryY=0.004;entryDx=0;entryDy=0;entryPerimeter=0;" parent="1" source="tl9KZuzmo9LQeoau1raO-174" target="tl9KZuzmo9LQeoau1raO-170" edge="1">
          <mxGeometry relative="1" as="geometry" />
        </mxCell>
        <mxCell id="tl9KZuzmo9LQeoau1raO-138" value="Entscheidung" style="rhombus;whiteSpace=wrap;html=1;" parent="1" vertex="1">
          <mxGeometry x="-330.36999999999995" y="5745" width="101.49" height="100" as="geometry" />
        </mxCell>
        <mxCell id="tl9KZuzmo9LQeoau1raO-139" value="...oder nein, das ist alles schon viel zu lange her!" style="text;html=1;strokeColor=none;fillColor=none;align=center;verticalAlign=middle;whiteSpace=wrap;rounded=0;" parent="1" vertex="1">
          <mxGeometry x="-560" y="5800" width="140.43" height="30" as="geometry" />
        </mxCell>
        <mxCell id="tl9KZuzmo9LQeoau1raO-141" value="&lt;span style=&quot;font-size: 18px;&quot;&gt;&lt;b&gt;-10P&lt;/b&gt;&lt;/span&gt;" style="text;html=1;strokeColor=none;fillColor=none;align=center;verticalAlign=middle;whiteSpace=wrap;rounded=0;" parent="1" vertex="1">
          <mxGeometry x="-350.74" y="5894.5" width="60" height="30" as="geometry" />
        </mxCell>
        <mxCell id="tl9KZuzmo9LQeoau1raO-142" value="...am besten alleine, das glaubt mir ja niemand" style="text;html=1;strokeColor=none;fillColor=none;align=center;verticalAlign=middle;whiteSpace=wrap;rounded=0;" parent="1" vertex="1">
          <mxGeometry x="-258.22" y="5899.5" width="130" height="30" as="geometry" />
        </mxCell>
        <mxCell id="tl9KZuzmo9LQeoau1raO-148" value="...aber das schaffe ich nicht alleine, am besten rufe ich PIC an" style="text;html=1;strokeColor=none;fillColor=none;align=center;verticalAlign=middle;whiteSpace=wrap;rounded=0;" parent="1" vertex="1">
          <mxGeometry x="225.00000000000006" y="5815" width="130" height="30" as="geometry" />
        </mxCell>
        <mxCell id="tl9KZuzmo9LQeoau1raO-160" style="edgeStyle=orthogonalEdgeStyle;rounded=0;orthogonalLoop=1;jettySize=auto;html=1;entryX=0.5;entryY=0;entryDx=0;entryDy=0;" parent="1" source="tl9KZuzmo9LQeoau1raO-153" target="tl9KZuzmo9LQeoau1raO-154" edge="1">
          <mxGeometry relative="1" as="geometry" />
        </mxCell>
        <mxCell id="tl9KZuzmo9LQeoau1raO-153" value="&lt;br&gt;Ort: Küche&lt;br&gt;&lt;br&gt;Rosi: &quot;Ich würde gerne in den Blumengarten gehen und bisschen Zeichnen&quot;&lt;br&gt;Mom: &quot;Alles klar mein Schatz, pass auf dich auf&quot;&lt;br&gt;Rosi: &quot;Mach ich, bis dann!&quot;&lt;br&gt;&lt;br&gt;Ort: Blumengarten&lt;br&gt;&lt;br&gt;Rosi: &quot;Endlich wieder hier, wie ich diesen Garten vermisst habe&quot;&lt;br&gt;Rosi: &quot;Perfekt, meine Lieblingsbank ist frei&quot;&lt;br&gt;N: &quot;Du setzt dich auf die Bank und nimmst einen großen Atemzug, um die Düfte der Blumen aufzunehmen&quot;&lt;br&gt;N: &quot; Du überlegst was du malen sollst?&quot;" style="rounded=0;whiteSpace=wrap;html=1;" parent="1" vertex="1">
          <mxGeometry x="860" y="2220" width="620" height="240" as="geometry" />
        </mxCell>
        <mxCell id="tl9KZuzmo9LQeoau1raO-163" style="edgeStyle=orthogonalEdgeStyle;rounded=0;orthogonalLoop=1;jettySize=auto;html=1;entryX=0.25;entryY=0;entryDx=0;entryDy=0;" parent="1" source="tl9KZuzmo9LQeoau1raO-154" target="tl9KZuzmo9LQeoau1raO-161" edge="1">
          <mxGeometry relative="1" as="geometry">
            <Array as="points">
              <mxPoint x="1015" y="2551" />
            </Array>
          </mxGeometry>
        </mxCell>
        <mxCell id="tl9KZuzmo9LQeoau1raO-164" style="edgeStyle=orthogonalEdgeStyle;rounded=0;orthogonalLoop=1;jettySize=auto;html=1;entryX=0.75;entryY=0;entryDx=0;entryDy=0;" parent="1" source="tl9KZuzmo9LQeoau1raO-154" target="tl9KZuzmo9LQeoau1raO-161" edge="1">
          <mxGeometry relative="1" as="geometry">
            <Array as="points">
              <mxPoint x="1325" y="2551" />
            </Array>
          </mxGeometry>
        </mxCell>
        <mxCell id="tl9KZuzmo9LQeoau1raO-154" value="Entscheidung" style="rhombus;whiteSpace=wrap;html=1;" parent="1" vertex="1">
          <mxGeometry x="1119.26" y="2501" width="101.49" height="100" as="geometry" />
        </mxCell>
        <mxCell id="tl9KZuzmo9LQeoau1raO-155" value="Ein Portrait von Rosalia" style="text;html=1;strokeColor=none;fillColor=none;align=center;verticalAlign=middle;whiteSpace=wrap;rounded=0;" parent="1" vertex="1">
          <mxGeometry x="934.3100000000001" y="2501" width="130" height="30" as="geometry" />
        </mxCell>
        <mxCell id="tl9KZuzmo9LQeoau1raO-156" value="Die Biene die es sich gerade auf einer Rose bequem gemacht hat" style="text;html=1;strokeColor=none;fillColor=none;align=center;verticalAlign=middle;whiteSpace=wrap;rounded=0;" parent="1" vertex="1">
          <mxGeometry x="1242.47" y="2501" width="163.22" height="30" as="geometry" />
        </mxCell>
        <mxCell id="tl9KZuzmo9LQeoau1raO-157" value="&lt;font style=&quot;font-size: 18px;&quot;&gt;&lt;b&gt;+10P&lt;/b&gt;&lt;/font&gt;" style="text;html=1;strokeColor=none;fillColor=none;align=center;verticalAlign=middle;whiteSpace=wrap;rounded=0;" parent="1" vertex="1">
          <mxGeometry x="1340.3700000000001" y="2571" width="60" height="30" as="geometry" />
        </mxCell>
        <mxCell id="tl9KZuzmo9LQeoau1raO-158" value="&lt;span style=&quot;font-size: 18px;&quot;&gt;&lt;b&gt;-10P&lt;/b&gt;&lt;/span&gt;" style="text;html=1;strokeColor=none;fillColor=none;align=center;verticalAlign=middle;whiteSpace=wrap;rounded=0;" parent="1" vertex="1">
          <mxGeometry x="945.9200000000001" y="2562" width="60" height="30" as="geometry" />
        </mxCell>
        <mxCell id="tl9KZuzmo9LQeoau1raO-166" style="edgeStyle=orthogonalEdgeStyle;rounded=0;orthogonalLoop=1;jettySize=auto;html=1;entryX=1;entryY=0.5;entryDx=0;entryDy=0;" parent="1" source="tl9KZuzmo9LQeoau1raO-161" target="tl9KZuzmo9LQeoau1raO-100" edge="1">
          <mxGeometry relative="1" as="geometry">
            <Array as="points">
              <mxPoint x="1170" y="4330" />
            </Array>
          </mxGeometry>
        </mxCell>
        <mxCell id="tl9KZuzmo9LQeoau1raO-161" value="N: &quot;Du vertiefst dich in deine Zeichnung und vergisst die Zeit.&quot;&lt;br&gt;PIC: &quot;Oh hi Rosi, lange nicht mehr gesehen.&quot;&lt;br&gt;Rosi: &quot;Oh hi [INPUT]&quot;&lt;br&gt;PIC: &quot;darf ich mich zu dir setzen?&quot;&lt;br&gt;Rosi: &quot;Ehm.... eigentlich würde ich gerne etwas Zeit für mich haben... sei mir nicht böse&quot;&lt;br&gt;PIC: &quot;Oh.... ehm.... ja klar... dann bis bald.... und herzliches Beileid noch&quot;&lt;br&gt;N: &quot;Nachdem du mit der Zeichnung fertig geworden bist, fällt dir auf das es langsam spät geworden ist und du nach Hause gehen solltest.&quot;" style="rounded=0;whiteSpace=wrap;html=1;" parent="1" vertex="1">
          <mxGeometry x="860" y="2644.5" width="620" height="240" as="geometry" />
        </mxCell>
        <mxCell id="tl9KZuzmo9LQeoau1raO-189" style="edgeStyle=orthogonalEdgeStyle;rounded=0;orthogonalLoop=1;jettySize=auto;html=1;entryX=0.5;entryY=0;entryDx=0;entryDy=0;" parent="1" source="tl9KZuzmo9LQeoau1raO-168" target="tl9KZuzmo9LQeoau1raO-176" edge="1">
          <mxGeometry relative="1" as="geometry" />
        </mxCell>
        <mxCell id="tl9KZuzmo9LQeoau1raO-168" value="Anruf PIC&lt;br style=&quot;border-color: var(--border-color);&quot;&gt;Ort: Schlafzimmer&lt;br style=&quot;border-color: var(--border-color);&quot;&gt;&lt;br style=&quot;border-color: var(--border-color);&quot;&gt;N: &quot;Du rufst PIC an und erzählst im von deinem Traum und deinem Vorhaben, dass Geheimnis von dem Verschwinden deiner Urgroßmutter zu lüften&quot;&lt;br style=&quot;border-color: var(--border-color);&quot;&gt;PIC: &quot;Da bin ich sowas von dabei, sollen wir uns gleich treffen?&quot;" style="rounded=0;whiteSpace=wrap;html=1;" parent="1" vertex="1">
          <mxGeometry x="842.5" y="5687.75" width="390" height="204.5" as="geometry" />
        </mxCell>
        <mxCell id="Ay3apNEdG9EY7qlDHxBp-20" style="edgeStyle=orthogonalEdgeStyle;rounded=0;orthogonalLoop=1;jettySize=auto;html=1;" parent="1" source="tl9KZuzmo9LQeoau1raO-170" target="tl9KZuzmo9LQeoau1raO-194" edge="1">
          <mxGeometry relative="1" as="geometry">
            <Array as="points">
              <mxPoint x="-290" y="6590" />
            </Array>
          </mxGeometry>
        </mxCell>
        <mxCell id="tl9KZuzmo9LQeoau1raO-170" value="Clue 3&lt;br&gt;Ort: Küche&lt;br&gt;&lt;br&gt;Rosi: &quot;Guten Morgen Mama&quot;&lt;br&gt;Mom: &quot;Guten Morgen mein Schatz, geht es dir gut? Ich habe dich vorhin schreien hören&quot;&lt;br&gt;Rosi: Oh ich hab geschrien?... Naja ich hatte mal wieder einen Alptraum, also nichts neues.&quot;&lt;br&gt;Rosi:&quot; Du Mom, weißt du etwas über das Verschwinden von Urgroßmutter Rosalia?&lt;br&gt;Mom: &quot;Phu, da wirbelst du aber was auf Rosi, das ist doch schon viel zu lange her alles&quot;&lt;br&gt;Rosi:&quot; Ja ich weiß, aber seit dem Tod von Opa würde ich es einfach gerne für ihn herausfinden... verstehst du?&lt;br&gt;Mom:&quot; Ja mein Schatz... aber ich weiß selbst nichts darüber.... das weiß wohl niemand.&quot;&lt;br&gt;Rosi: &quot;Doch ich glaube das weiß jemand.... und nämlich der Mörder von Rosalia.&quot;&lt;br&gt;Mom: &quot;so etwas kannst du doch nicht einfach so sagen!&quot;&lt;br&gt;Rosi: &quot;Doch ich bin mir sicher, dass Rosalia nciht einfach verschwunden ist, sondern umgebracht wurde... ich weiß nur nicht ganz warum.&quot;&lt;br&gt;Mom: &quot;..... weißt du was Rosi?...... ich glaube du hast recht.... ich.. ich.. hab das nie zusammen in Verbdindung gebracht und dachte das ging einen Urgroßvater.&quot;&lt;br&gt;Mom: &quot;Ich hab da einen alten Brief.&quot;&lt;br&gt;&lt;br&gt;Show Letter&lt;br&gt;&lt;br&gt;Rosi lesend: &quot;Du wirst bereuen was du mir angetan hast!&amp;nbsp;&lt;span style=&quot;background-color: initial;&quot;&gt;Mein Ruf ist ruiniert!&lt;/span&gt;&amp;nbsp;&quot;&lt;br&gt;Ros: &quot;das klingt eindeutig nach einer Drohung!&quot;&amp;nbsp;&lt;br&gt;Mom: &quot;Da hast du vollkommen recht... behalte ihn... Ich hoffe ich konnte dir etwas helfen.&quot;&lt;br&gt;Rosi: &quot;ja auf jeden Fall, danke Mama!!&lt;br&gt;&lt;br&gt;&lt;br&gt;N: &quot;Du rufst gleich nach dem Gespräch PIC an um dich mit ihm im Blumengarten zu verabreden." style="rounded=0;whiteSpace=wrap;html=1;" parent="1" vertex="1">
          <mxGeometry x="-494.57" y="6000" width="455" height="490" as="geometry" />
        </mxCell>
        <mxCell id="tl9KZuzmo9LQeoau1raO-173" value="&lt;span style=&quot;font-size: 18px;&quot;&gt;&lt;b&gt;+10P&lt;/b&gt;&lt;/span&gt;" style="text;html=1;strokeColor=none;fillColor=none;align=center;verticalAlign=middle;whiteSpace=wrap;rounded=0;" parent="1" vertex="1">
          <mxGeometry x="255" y="5740" width="60" height="30" as="geometry" />
        </mxCell>
        <mxCell id="tl9KZuzmo9LQeoau1raO-193" style="edgeStyle=orthogonalEdgeStyle;rounded=0;orthogonalLoop=1;jettySize=auto;html=1;entryX=1;entryY=0.5;entryDx=0;entryDy=0;" parent="1" source="tl9KZuzmo9LQeoau1raO-176" target="tl9KZuzmo9LQeoau1raO-170" edge="1">
          <mxGeometry relative="1" as="geometry" />
        </mxCell>
        <mxCell id="tl9KZuzmo9LQeoau1raO-195" style="edgeStyle=orthogonalEdgeStyle;rounded=0;orthogonalLoop=1;jettySize=auto;html=1;entryX=1;entryY=0.5;entryDx=0;entryDy=0;" parent="1" source="tl9KZuzmo9LQeoau1raO-176" target="tl9KZuzmo9LQeoau1raO-194" edge="1">
          <mxGeometry relative="1" as="geometry">
            <Array as="points">
              <mxPoint x="1038" y="6510" />
            </Array>
          </mxGeometry>
        </mxCell>
        <mxCell id="tl9KZuzmo9LQeoau1raO-176" value="Entscheidung" style="rhombus;whiteSpace=wrap;html=1;" parent="1" vertex="1">
          <mxGeometry x="986.75" y="6020" width="101.49" height="100" as="geometry" />
        </mxCell>
        <mxCell id="tl9KZuzmo9LQeoau1raO-177" value="&lt;font style=&quot;font-size: 18px;&quot;&gt;&lt;b&gt;+10P&lt;/b&gt;&lt;/font&gt;" style="text;html=1;strokeColor=none;fillColor=none;align=center;verticalAlign=middle;whiteSpace=wrap;rounded=0;" parent="1" vertex="1">
          <mxGeometry x="846.1199999999999" y="6020" width="60" height="30" as="geometry" />
        </mxCell>
        <mxCell id="tl9KZuzmo9LQeoau1raO-178" value="&lt;span style=&quot;font-size: 18px;&quot;&gt;&lt;b&gt;-10P&lt;/b&gt;&lt;/span&gt;" style="text;html=1;strokeColor=none;fillColor=none;align=center;verticalAlign=middle;whiteSpace=wrap;rounded=0;" parent="1" vertex="1">
          <mxGeometry x="960" y="6190" width="60" height="30" as="geometry" />
        </mxCell>
        <mxCell id="tl9KZuzmo9LQeoau1raO-179" value="Ja auf jeden Fall, der Blumengarten?" style="text;html=1;strokeColor=none;fillColor=none;align=center;verticalAlign=middle;whiteSpace=wrap;rounded=0;" parent="1" vertex="1">
          <mxGeometry x="1050" y="6190" width="130" height="30" as="geometry" />
        </mxCell>
        <mxCell id="tl9KZuzmo9LQeoau1raO-182" value="Ich muss mich erstmal von diesem Schreck erholen.&amp;nbsp;" style="text;html=1;strokeColor=none;fillColor=none;align=center;verticalAlign=middle;whiteSpace=wrap;rounded=0;" parent="1" vertex="1">
          <mxGeometry x="815.92" y="6090" width="130" height="30" as="geometry" />
        </mxCell>
        <mxCell id="tl9KZuzmo9LQeoau1raO-174" value="" style="shape=mxgraph.signs.healthcare.heart_1;html=1;pointerEvents=1;fillColor=#000000;strokeColor=none;verticalLabelPosition=bottom;verticalAlign=top;align=center;" parent="1" vertex="1">
          <mxGeometry x="170" y="5770" width="50" height="40" as="geometry" />
        </mxCell>
        <mxCell id="Ay3apNEdG9EY7qlDHxBp-32" style="edgeStyle=orthogonalEdgeStyle;rounded=0;orthogonalLoop=1;jettySize=auto;html=1;entryX=0.5;entryY=0;entryDx=0;entryDy=0;" parent="1" source="tl9KZuzmo9LQeoau1raO-194" target="Ay3apNEdG9EY7qlDHxBp-26" edge="1">
          <mxGeometry relative="1" as="geometry" />
        </mxCell>
        <mxCell id="tl9KZuzmo9LQeoau1raO-194" value="Plan schmieden&lt;br&gt;Ort: Blumengarten&lt;br&gt;&lt;br&gt;PIC: &quot;Hallo Rosi&quot;&lt;br&gt;Rosi: &quot;Hallo PIC&quot;&lt;br&gt;PIC: &quot;Wo sollen wir anfangen? Hast du schon eine Idee wie wir das Geheimnis lüften können?&quot;&lt;br&gt;Rosi: &quot;In meinem Traum ist sie von etwas runtergestürzt...&lt;br&gt;Rosi:&quot; Und sie meinte sie übt die letzte Drehung nochmal&quot;&lt;br&gt;PIC: &quot;hmm komisch, war sie Tänzerin?&quot;&lt;br&gt;Rosi: &quot;Opa hat mir mal was erzählt, dass sich Rosalia oben in der Luft am wohlsten gefühlt hat&quot;&lt;br&gt;Rosi:&quot;Vielleicht was meine Mama etwas darüber&quot;&lt;br&gt;PIC:&quot; Los dann ruf sie gleich an&quot;&lt;br&gt;&amp;nbsp;&lt;br&gt;Audio: Telefonklingeln&lt;br&gt;&lt;br&gt;Mom:&quot; Hallo, Rosi, ist etwas passiert?&quot;&lt;br&gt;Rosi:&quot; Nein, alles gut Mama... aber ich hab da eine Frage. Weißt du ob Großmutter Rosalia getanzt hat?&lt;br&gt;Mom:&quot; Hmm da muss ich nachdenken. Ich glaube Rosalia hat früher in einem Zirkus gearbeitet. Ich habe noch einen alten Zeitungsartikel von ihr, als sie einen Auftritt als Seiltänzerin hatte. Ich schick dir das Bild, wenn ich es gefunden habe.&quot;&lt;br&gt;Rosi: &quot;Danke Mama, du bist die BESTE!&quot;&amp;nbsp;&lt;br&gt;&lt;br&gt;Audio: Klingelton Handy&lt;br&gt;&lt;br&gt;Rosi:&quot; Wow, das ging aber schnell, das ist also das Bild.&quot;&lt;br&gt;&lt;br&gt;Handy mit Bild zeigen --&amp;gt; Item&lt;br&gt;&lt;br&gt;PIC: &quot;Schau mal da steht der Name vom Zirkus&quot;&lt;br&gt;PIC:&quot; Irgendwie kommt mir der bekannt vor.... AHHH ich weiß, die sind noch bis heute in der Stadt&quot;&lt;br&gt;Rosi:&quot; Wirklich? Das ist ja perfekt.... Lass uns gleich hingehen&quot;" style="rounded=0;whiteSpace=wrap;html=1;" parent="1" vertex="1">
          <mxGeometry x="367.75" y="6310" width="390" height="600" as="geometry" />
        </mxCell>
        <mxCell id="Ay3apNEdG9EY7qlDHxBp-30" style="edgeStyle=orthogonalEdgeStyle;rounded=0;orthogonalLoop=1;jettySize=auto;html=1;entryX=1;entryY=0.5;entryDx=0;entryDy=0;exitX=0.5;exitY=1;exitDx=0;exitDy=0;" parent="1" source="tl9KZuzmo9LQeoau1raO-197" target="Ay3apNEdG9EY7qlDHxBp-14" edge="1">
          <mxGeometry relative="1" as="geometry">
            <Array as="points">
              <mxPoint x="1605" y="9500" />
            </Array>
          </mxGeometry>
        </mxCell>
        <mxCell id="tl9KZuzmo9LQeoau1raO-197" value="Enthüllungsszene&lt;br&gt;Ort: Zirkus&lt;br&gt;&lt;br&gt;Julius: &quot;So wie du mit den Gefühlen anderer umgehst, hast du keine Hilfe verdient!&quot;&lt;br&gt;Rosalia: &quot;Julius was hast du nur getan?&quot;&lt;br&gt;Julius: &quot;Das was ich schon viel früher hätte tun müssen, als du diesen Dreck geheiratet hast!&quot;&lt;br&gt;Rosalia: &quot;Wie kannst du nur... mein Sohn....&quot;" style="rounded=0;whiteSpace=wrap;html=1;fillColor=#dae8fc;strokeColor=#6c8ebf;" parent="1" vertex="1">
          <mxGeometry x="1410" y="9200" width="390" height="160" as="geometry" />
        </mxCell>
        <mxCell id="m0jVCM9L-4Xvr7T7UgM1-3" style="edgeStyle=orthogonalEdgeStyle;rounded=0;orthogonalLoop=1;jettySize=auto;html=1;entryX=0.5;entryY=0;entryDx=0;entryDy=0;" parent="1" source="Ay3apNEdG9EY7qlDHxBp-1" target="Ay3apNEdG9EY7qlDHxBp-46" edge="1">
          <mxGeometry relative="1" as="geometry" />
        </mxCell>
        <mxCell id="Ay3apNEdG9EY7qlDHxBp-1" value="Wahrsagerin First&lt;br&gt;Ort: Wahrsagerzimmer&lt;br&gt;&lt;br&gt;Rosi: &quot;Hallo ist hier jemand?&quot;&lt;br&gt;Wahrsagerin: &quot;Hallo liebe Gäste, kommt herein.&quot;&lt;br&gt;Wahrsagerin: &quot; Huch, Rosalia was machst du denn hier?&quot;&lt;br&gt;Rosi:&quot; Wie bitte?... Ich kenne sie doch garnicht?&quot;&lt;br&gt;Wahrsagerin: &quot;Oh Entschuldigung, da muss ich mich wohl vertan haben.&quot;&lt;br&gt;PIC: &quot;Nein nein, ihr Name ist Rosalia... sie haben Recht... aber woher wissen sie das?&quot;&lt;br&gt;Wahrsagerin: &quot;Ich weiß viel... Das Wissen meiner Ahnen wurde an mich weitergegeben.&quot;&lt;br&gt;Wahrsagerin: &quot;Ihr könnt mir genau eine Frage stellen.. also überlegt gut&quot;&lt;br&gt;&amp;nbsp;" style="rounded=0;whiteSpace=wrap;html=1;" parent="1" vertex="1">
          <mxGeometry x="337.49999999999983" y="7599" width="455" height="269" as="geometry" />
        </mxCell>
        <mxCell id="Ay3apNEdG9EY7qlDHxBp-6" style="edgeStyle=orthogonalEdgeStyle;rounded=0;orthogonalLoop=1;jettySize=auto;html=1;entryX=0.5;entryY=0;entryDx=0;entryDy=0;" parent="1" source="Ay3apNEdG9EY7qlDHxBp-3" target="tl9KZuzmo9LQeoau1raO-133" edge="1">
          <mxGeometry relative="1" as="geometry">
            <Array as="points">
              <mxPoint x="-310.63" y="7974" />
              <mxPoint x="-151.62999999999988" y="7974" />
            </Array>
          </mxGeometry>
        </mxCell>
        <mxCell id="Ay3apNEdG9EY7qlDHxBp-10" style="edgeStyle=orthogonalEdgeStyle;rounded=0;orthogonalLoop=1;jettySize=auto;html=1;entryX=0.5;entryY=0;entryDx=0;entryDy=0;" parent="1" source="Ay3apNEdG9EY7qlDHxBp-3" target="Ay3apNEdG9EY7qlDHxBp-8" edge="1">
          <mxGeometry relative="1" as="geometry">
            <Array as="points">
              <mxPoint x="-310.63" y="7974" />
              <mxPoint x="-445.63" y="7974" />
            </Array>
          </mxGeometry>
        </mxCell>
        <mxCell id="Ay3apNEdG9EY7qlDHxBp-3" value="Direktor First&lt;br&gt;Ort: Zirkus&lt;br&gt;&lt;br&gt;Rosi: &quot;Entschuldigung Herr Direktor?&quot;&lt;br&gt;Direktor: &quot;Einen wunderschönen Guten Tag&amp;nbsp;" style="rounded=0;whiteSpace=wrap;html=1;" parent="1" vertex="1">
          <mxGeometry x="-538.0200000000001" y="7599" width="455" height="269" as="geometry" />
        </mxCell>
        <mxCell id="m0jVCM9L-4Xvr7T7UgM1-8" style="edgeStyle=orthogonalEdgeStyle;rounded=0;orthogonalLoop=1;jettySize=auto;html=1;entryX=0.5;entryY=0;entryDx=0;entryDy=0;" parent="1" source="Ay3apNEdG9EY7qlDHxBp-4" target="m0jVCM9L-4Xvr7T7UgM1-5" edge="1">
          <mxGeometry relative="1" as="geometry" />
        </mxCell>
        <mxCell id="Ay3apNEdG9EY7qlDHxBp-4" value="Clown First&lt;br&gt;Ort: Clownzimmer&lt;br&gt;&lt;br&gt;Clown: &quot;Halli Hallo liebe Gäste, wollte ihr ein Zaubertrick sehen?&quot;&lt;br&gt;Rosi: &quot;hihi nein danke, auch wenn ich mir sicher bin, dass das ein fantastischer Trick ist, hätten wireine etwas ernstere Frage&quot;&lt;br&gt;Clown: &quot;Oh und da kommt ihr als erstes zu mir?&quot;&lt;br&gt;&quot;Sonst werde ich hier nicht wirklich ernst genommen&quot;&lt;br&gt;PIC: &quot;Klar! Clowns sind doch die Allwissenden auf einem Zirkus&quot;&lt;br&gt;Clown:&quot; Ach pshhh da werde ich ja ganz rot.&quot;&lt;br&gt;Clown: &quot;Welche Frage wollt ihr mir denn stellen?" style="rounded=0;whiteSpace=wrap;html=1;" parent="1" vertex="1">
          <mxGeometry x="1310.3899999999999" y="7599" width="455" height="269" as="geometry" />
        </mxCell>
        <mxCell id="Ay3apNEdG9EY7qlDHxBp-13" style="edgeStyle=orthogonalEdgeStyle;rounded=0;orthogonalLoop=1;jettySize=auto;html=1;" parent="1" target="Ay3apNEdG9EY7qlDHxBp-9" edge="1">
          <mxGeometry relative="1" as="geometry">
            <mxPoint x="-448.37" y="8019" as="sourcePoint" />
          </mxGeometry>
        </mxCell>
        <mxCell id="Ay3apNEdG9EY7qlDHxBp-8" value="Über 10 Punkte?" style="rounded=1;whiteSpace=wrap;html=1;" parent="1" vertex="1">
          <mxGeometry x="-505.37" y="7994" width="120" height="45" as="geometry" />
        </mxCell>
        <mxCell id="Ay3apNEdG9EY7qlDHxBp-39" style="edgeStyle=orthogonalEdgeStyle;rounded=0;orthogonalLoop=1;jettySize=auto;html=1;entryX=0;entryY=0.5;entryDx=0;entryDy=0;" parent="1" source="Ay3apNEdG9EY7qlDHxBp-9" target="Ay3apNEdG9EY7qlDHxBp-25" edge="1">
          <mxGeometry relative="1" as="geometry">
            <Array as="points">
              <mxPoint x="-680" y="8144" />
              <mxPoint x="-680" y="7380" />
            </Array>
          </mxGeometry>
        </mxCell>
        <mxCell id="Ay3apNEdG9EY7qlDHxBp-9" value="Zurück zur Entscheidung wen sie als erstes fragen" style="rounded=0;whiteSpace=wrap;html=1;" parent="1" vertex="1">
          <mxGeometry x="-580.37" y="8074" width="264.41" height="140" as="geometry" />
        </mxCell>
        <mxCell id="Ay3apNEdG9EY7qlDHxBp-11" value="Bad Ending&lt;br&gt;Ort: Wohnzimmer&lt;br&gt;&lt;br&gt;Novel Page&amp;nbsp;&lt;br&gt;Zeitungsartikel vom Verschwinden von Rosi" style="rounded=0;whiteSpace=wrap;html=1;fillColor=#f8cecc;strokeColor=#b85450;" parent="1" vertex="1">
          <mxGeometry x="460.00000000000006" y="9600" width="306.6" height="180" as="geometry" />
        </mxCell>
        <mxCell id="Ay3apNEdG9EY7qlDHxBp-28" style="edgeStyle=orthogonalEdgeStyle;rounded=0;orthogonalLoop=1;jettySize=auto;html=1;entryX=0;entryY=0.5;entryDx=0;entryDy=0;" parent="1" source="Ay3apNEdG9EY7qlDHxBp-12" edge="1">
          <mxGeometry relative="1" as="geometry">
            <mxPoint x="1412.87" y="9280" as="targetPoint" />
          </mxGeometry>
        </mxCell>
        <mxCell id="m0jVCM9L-4Xvr7T7UgM1-21" style="edgeStyle=orthogonalEdgeStyle;rounded=0;orthogonalLoop=1;jettySize=auto;html=1;entryX=0.5;entryY=0;entryDx=0;entryDy=0;" parent="1" source="Ay3apNEdG9EY7qlDHxBp-12" target="Ay3apNEdG9EY7qlDHxBp-14" edge="1">
          <mxGeometry relative="1" as="geometry" />
        </mxCell>
        <mxCell id="Ay3apNEdG9EY7qlDHxBp-12" value="N: &quot; Ihr zwie überlegt wes passiert sein könnte?&lt;br&gt;N: &quot;Wer hat Rosalia umgebracht?&quot;&lt;br&gt;&lt;br&gt;&lt;br&gt;1. Rosalias Mutter weil sie so sauer war&lt;br&gt;2. Julius&lt;br&gt;3. Rosalias Ehemann&lt;br&gt;4.Der damalige Zirkus-Direktor" style="rounded=0;whiteSpace=wrap;html=1;" parent="1" vertex="1">
          <mxGeometry x="750.8000000000001" y="9150" width="519.57" height="260" as="geometry" />
        </mxCell>
        <mxCell id="Ay3apNEdG9EY7qlDHxBp-15" style="edgeStyle=orthogonalEdgeStyle;rounded=0;orthogonalLoop=1;jettySize=auto;html=1;entryX=0.5;entryY=0;entryDx=0;entryDy=0;" parent="1" source="Ay3apNEdG9EY7qlDHxBp-14" target="tl9KZuzmo9LQeoau1raO-134" edge="1">
          <mxGeometry relative="1" as="geometry" />
        </mxCell>
        <mxCell id="Ay3apNEdG9EY7qlDHxBp-16" style="edgeStyle=orthogonalEdgeStyle;rounded=0;orthogonalLoop=1;jettySize=auto;html=1;entryX=0.5;entryY=0;entryDx=0;entryDy=0;" parent="1" source="Ay3apNEdG9EY7qlDHxBp-14" target="Ay3apNEdG9EY7qlDHxBp-11" edge="1">
          <mxGeometry relative="1" as="geometry" />
        </mxCell>
        <mxCell id="Ay3apNEdG9EY7qlDHxBp-14" value="Entscheidung" style="rhombus;whiteSpace=wrap;html=1;" parent="1" vertex="1">
          <mxGeometry x="959.8400000000001" y="9450" width="101.49" height="100" as="geometry" />
        </mxCell>
        <mxCell id="Ay3apNEdG9EY7qlDHxBp-17" value="2" style="text;html=1;strokeColor=none;fillColor=none;align=center;verticalAlign=middle;whiteSpace=wrap;rounded=0;" parent="1" vertex="1">
          <mxGeometry x="1001.33" y="9550" width="60" height="30" as="geometry" />
        </mxCell>
        <mxCell id="Ay3apNEdG9EY7qlDHxBp-18" value="1,3,4" style="text;html=1;strokeColor=none;fillColor=none;align=center;verticalAlign=middle;whiteSpace=wrap;rounded=0;" parent="1" vertex="1">
          <mxGeometry x="815.3700000000001" y="9470" width="60" height="30" as="geometry" />
        </mxCell>
        <mxCell id="Ay3apNEdG9EY7qlDHxBp-54" style="edgeStyle=orthogonalEdgeStyle;rounded=0;orthogonalLoop=1;jettySize=auto;html=1;" parent="1" source="Ay3apNEdG9EY7qlDHxBp-23" target="Ay3apNEdG9EY7qlDHxBp-53" edge="1">
          <mxGeometry relative="1" as="geometry" />
        </mxCell>
        <mxCell id="Ay3apNEdG9EY7qlDHxBp-23" value="Wahrsagerin: &quot;Ich sehe einen jungen Mann... viel Hass steckt in ihm drin... sehr viel Hass.... Er ist umgeben von Seilen... Oh da bricht die Verbindung ab....&lt;br&gt;Wahrsagerin: &quot;Da will wohl jemand nicht, dass ich da weiter in der Vergangenheit schnüffle&quot;&lt;br&gt;&lt;br&gt;Audio: Hexenlachen&lt;br&gt;&lt;br&gt;Rosi: &quot;Was ist denn jetzt los?&quot;&lt;br&gt;PIC: &quot;Ich glaube die ist verrückt!&quot;&lt;br&gt;Wahrsagerin : &quot;HÖRT AUF IN DER VERGANGENHEIT HERUM ZU WÜHLEN! SONST SEIT IHR DIE NÄCHSTEN..... ODER SOLLTE ICH EHER SAGEN IHR SEIT DIE NÄCHSTEN&amp;nbsp;&amp;nbsp;&lt;br&gt;&lt;br&gt;Audio: Tür zuknallen&lt;br&gt;Transition: Spirale" style="rounded=0;whiteSpace=wrap;html=1;" parent="1" vertex="1">
          <mxGeometry x="38.760000000000005" y="8074" width="336.65" height="340" as="geometry" />
        </mxCell>
        <mxCell id="JG6QZ4ECd0AovTRmUkIl-4" style="edgeStyle=orthogonalEdgeStyle;rounded=0;orthogonalLoop=1;jettySize=auto;html=1;entryX=0.5;entryY=0;entryDx=0;entryDy=0;" parent="1" source="Ay3apNEdG9EY7qlDHxBp-24" target="m0jVCM9L-4Xvr7T7UgM1-14" edge="1">
          <mxGeometry relative="1" as="geometry">
            <Array as="points">
              <mxPoint x="1222" y="8470" />
              <mxPoint x="1699" y="8470" />
            </Array>
          </mxGeometry>
        </mxCell>
        <mxCell id="Ay3apNEdG9EY7qlDHxBp-24" value="Clown: &quot;Oh nein, ich bin der erste aus der Familie der so etwas macht&quot;&lt;br&gt;&quot;Mein Opa fand Zirkusse immer ganz schrecklich!&quot;&lt;br&gt;&quot;Aber Opa Julius weiß nicht, dass mir sein Wissen über Seile hilft, die Luftballons in tolle Figuren zubinden.&quot;&lt;br&gt;&quot;hihihihi wenn er das wüsste, würde er sich in seinem Grab umdrehen&quot;&lt;br&gt;Rosi: &quot;Oh wow, das ist aber sehr mutig, dich gegen die Familie zu stellen. Meine Urgroßmutter war auch so mutig&quot;&lt;br&gt;Clown: &quot;Deine Urgroßmutter war bestimmt eine tolle Frau!&quot;&lt;br&gt;Rosi.&quot; Ja das war sie...&quot;&lt;br&gt;Clown: &quot;So jetzt muss ich aber weiter! Tschüsseli&quot;&lt;br&gt;&amp;nbsp;" style="rounded=0;whiteSpace=wrap;html=1;" parent="1" vertex="1">
          <mxGeometry x="1108" y="8110" width="264.41" height="280" as="geometry" />
        </mxCell>
        <mxCell id="Ay3apNEdG9EY7qlDHxBp-34" style="edgeStyle=orthogonalEdgeStyle;rounded=0;orthogonalLoop=1;jettySize=auto;html=1;entryX=0.5;entryY=0;entryDx=0;entryDy=0;" parent="1" source="Ay3apNEdG9EY7qlDHxBp-25" target="Ay3apNEdG9EY7qlDHxBp-3" edge="1">
          <mxGeometry relative="1" as="geometry" />
        </mxCell>
        <mxCell id="Ay3apNEdG9EY7qlDHxBp-35" style="edgeStyle=orthogonalEdgeStyle;rounded=0;orthogonalLoop=1;jettySize=auto;html=1;" parent="1" source="Ay3apNEdG9EY7qlDHxBp-25" target="Ay3apNEdG9EY7qlDHxBp-4" edge="1">
          <mxGeometry relative="1" as="geometry" />
        </mxCell>
        <mxCell id="Ay3apNEdG9EY7qlDHxBp-36" style="edgeStyle=orthogonalEdgeStyle;rounded=0;orthogonalLoop=1;jettySize=auto;html=1;entryX=0.5;entryY=0;entryDx=0;entryDy=0;" parent="1" source="Ay3apNEdG9EY7qlDHxBp-37" target="Ay3apNEdG9EY7qlDHxBp-1" edge="1">
          <mxGeometry relative="1" as="geometry" />
        </mxCell>
        <mxCell id="Ay3apNEdG9EY7qlDHxBp-25" value="Entscheidung" style="rhombus;whiteSpace=wrap;html=1;" parent="1" vertex="1">
          <mxGeometry x="514.25" y="7330" width="101.49" height="100" as="geometry" />
        </mxCell>
        <mxCell id="Ay3apNEdG9EY7qlDHxBp-33" style="edgeStyle=orthogonalEdgeStyle;rounded=0;orthogonalLoop=1;jettySize=auto;html=1;" parent="1" source="Ay3apNEdG9EY7qlDHxBp-26" target="Ay3apNEdG9EY7qlDHxBp-25" edge="1">
          <mxGeometry relative="1" as="geometry" />
        </mxCell>
        <mxCell id="Ay3apNEdG9EY7qlDHxBp-26" value="Ankunft Zirkus&lt;br&gt;Ort: Zirkus&lt;br&gt;&lt;br&gt;Audio: Zirkus&lt;br&gt;&lt;br&gt;Rosi:&quot; Wow ich war noch nie im Zirkus.&quot;&lt;br&gt;PIC:&quot; Echt? ich war früher immer mit meiner Familie&quot;&lt;br&gt;Rosi:&quot;Und wie wollen wir hier jetzt etwas herausfinden?&quot;&lt;br&gt;PIC: &quot;Beim Zirkus sind immer die spannendsten Menschen.. Ich würde sagen, dass wir die Leute hier befragen, ob sie etwas von einem Tod einer Seiltänzerin wissen&quot;&lt;br&gt;Rosi:&quot;Ich bin mir unsicher, ich glaube nicht, dass jeder auf diese Frage gut reagiert... aber ich vertraue dir&quot;&lt;br&gt;PIC:&quot;Wen wollen wir als erstes Fragen?&quot;&amp;nbsp;" style="rounded=0;whiteSpace=wrap;html=1;" parent="1" vertex="1">
          <mxGeometry x="337.4999999999999" y="7000" width="455" height="269" as="geometry" />
        </mxCell>
        <mxCell id="Ay3apNEdG9EY7qlDHxBp-27" value="" style="shape=mxgraph.signs.healthcare.heart_1;html=1;pointerEvents=1;fillColor=#000000;strokeColor=none;verticalLabelPosition=bottom;verticalAlign=top;align=center;" parent="1" vertex="1">
          <mxGeometry x="1012.5" y="6270" width="50" height="40" as="geometry" />
        </mxCell>
        <mxCell id="Ay3apNEdG9EY7qlDHxBp-38" value="" style="edgeStyle=orthogonalEdgeStyle;rounded=0;orthogonalLoop=1;jettySize=auto;html=1;entryX=0.5;entryY=0;entryDx=0;entryDy=0;" parent="1" source="Ay3apNEdG9EY7qlDHxBp-25" target="Ay3apNEdG9EY7qlDHxBp-37" edge="1">
          <mxGeometry relative="1" as="geometry">
            <mxPoint x="565" y="7430" as="sourcePoint" />
            <mxPoint x="565" y="7599" as="targetPoint" />
          </mxGeometry>
        </mxCell>
        <mxCell id="Ay3apNEdG9EY7qlDHxBp-37" value="" style="shape=mxgraph.signs.healthcare.heart_1;html=1;pointerEvents=1;fillColor=#000000;strokeColor=none;verticalLabelPosition=bottom;verticalAlign=top;align=center;" parent="1" vertex="1">
          <mxGeometry x="540" y="7490" width="50" height="40" as="geometry" />
        </mxCell>
        <mxCell id="Ay3apNEdG9EY7qlDHxBp-40" value="Direktor" style="text;html=1;strokeColor=none;fillColor=none;align=center;verticalAlign=middle;whiteSpace=wrap;rounded=0;" parent="1" vertex="1">
          <mxGeometry x="200" y="7350" width="130" height="30" as="geometry" />
        </mxCell>
        <mxCell id="Ay3apNEdG9EY7qlDHxBp-41" value="Clown" style="text;html=1;strokeColor=none;fillColor=none;align=center;verticalAlign=middle;whiteSpace=wrap;rounded=0;" parent="1" vertex="1">
          <mxGeometry x="958.24" y="7350" width="130" height="30" as="geometry" />
        </mxCell>
        <mxCell id="Ay3apNEdG9EY7qlDHxBp-43" value="Wahrsagerin" style="text;html=1;strokeColor=none;fillColor=none;align=center;verticalAlign=middle;whiteSpace=wrap;rounded=0;" parent="1" vertex="1">
          <mxGeometry x="550" y="7450" width="130" height="30" as="geometry" />
        </mxCell>
        <mxCell id="Ay3apNEdG9EY7qlDHxBp-44" value="&lt;span style=&quot;font-size: 18px;&quot;&gt;&lt;b&gt;-10P&lt;/b&gt;&lt;/span&gt;" style="text;html=1;strokeColor=none;fillColor=none;align=center;verticalAlign=middle;whiteSpace=wrap;rounded=0;" parent="1" vertex="1">
          <mxGeometry x="469.24" y="7490" width="60" height="30" as="geometry" />
        </mxCell>
        <mxCell id="Ay3apNEdG9EY7qlDHxBp-45" value="&lt;span style=&quot;font-size: 18px;&quot;&gt;&lt;b&gt;+10 P&lt;/b&gt;&lt;/span&gt;" style="text;html=1;strokeColor=none;fillColor=none;align=center;verticalAlign=middle;whiteSpace=wrap;rounded=0;" parent="1" vertex="1">
          <mxGeometry x="1090" y="7350" width="60" height="30" as="geometry" />
        </mxCell>
        <mxCell id="Ay3apNEdG9EY7qlDHxBp-56" style="edgeStyle=orthogonalEdgeStyle;rounded=0;orthogonalLoop=1;jettySize=auto;html=1;entryX=0.5;entryY=0;entryDx=0;entryDy=0;" parent="1" source="Ay3apNEdG9EY7qlDHxBp-46" target="Ay3apNEdG9EY7qlDHxBp-55" edge="1">
          <mxGeometry relative="1" as="geometry" />
        </mxCell>
        <mxCell id="m0jVCM9L-4Xvr7T7UgM1-2" style="edgeStyle=orthogonalEdgeStyle;rounded=0;orthogonalLoop=1;jettySize=auto;html=1;" parent="1" source="Ay3apNEdG9EY7qlDHxBp-46" target="Ay3apNEdG9EY7qlDHxBp-52" edge="1">
          <mxGeometry relative="1" as="geometry" />
        </mxCell>
        <mxCell id="Ay3apNEdG9EY7qlDHxBp-46" value="Entscheidung" style="rhombus;whiteSpace=wrap;html=1;" parent="1" vertex="1">
          <mxGeometry x="513.43" y="7914" width="101.49" height="100" as="geometry" />
        </mxCell>
        <mxCell id="Ay3apNEdG9EY7qlDHxBp-47" value="" style="edgeStyle=orthogonalEdgeStyle;rounded=0;orthogonalLoop=1;jettySize=auto;html=1;entryX=0.5;entryY=0;entryDx=0;entryDy=0;" parent="1" source="Ay3apNEdG9EY7qlDHxBp-46" target="Ay3apNEdG9EY7qlDHxBp-23" edge="1">
          <mxGeometry relative="1" as="geometry">
            <mxPoint x="564.18" y="8014" as="sourcePoint" />
            <mxPoint x="564.18" y="8074" as="targetPoint" />
          </mxGeometry>
        </mxCell>
        <mxCell id="Ay3apNEdG9EY7qlDHxBp-48" value="Kannst du in die Vergangenheit schauen und mir sagen was an dem Todestag meiner Urgroßmutter passiert ist?" style="text;html=1;strokeColor=none;fillColor=none;align=center;verticalAlign=middle;whiteSpace=wrap;rounded=0;" parent="1" vertex="1">
          <mxGeometry x="250" y="7920" width="233.5" height="30" as="geometry" />
        </mxCell>
        <mxCell id="Ay3apNEdG9EY7qlDHxBp-49" value="Wer ist meine große Liebe" style="text;html=1;strokeColor=none;fillColor=none;align=center;verticalAlign=middle;whiteSpace=wrap;rounded=0;" parent="1" vertex="1">
          <mxGeometry x="420" y="8030" width="130" height="30" as="geometry" />
        </mxCell>
        <mxCell id="Ay3apNEdG9EY7qlDHxBp-50" value="Weißt du warum Rosalia umgebracht wurde?" style="text;html=1;strokeColor=none;fillColor=none;align=center;verticalAlign=middle;whiteSpace=wrap;rounded=0;" parent="1" vertex="1">
          <mxGeometry x="639.9999999999999" y="7920" width="130" height="30" as="geometry" />
        </mxCell>
        <mxCell id="nvY-KlJdmfwofK_SIzbv-8" style="edgeStyle=orthogonalEdgeStyle;rounded=0;orthogonalLoop=1;jettySize=auto;html=1;entryX=0.5;entryY=0;entryDx=0;entryDy=0;" parent="1" source="Ay3apNEdG9EY7qlDHxBp-52" target="nvY-KlJdmfwofK_SIzbv-2" edge="1">
          <mxGeometry relative="1" as="geometry" />
        </mxCell>
        <mxCell id="Ay3apNEdG9EY7qlDHxBp-52" value="Wahrsagerin: &quot;hmm wenn du möchtest kann ich dir die Karten lesen lassen.&quot;&lt;br&gt;Wahrsagerin: &quot;Ich habe das Gefühl, dass du und Rosalia eine enge Verbindung zueinander habt.&quot;&lt;br&gt;Rosi: &quot;Ja gerne&quot;&lt;br&gt;Wahrsagerin: &quot;.....&quot;&lt;br&gt;&lt;br&gt;Tarot Karten zeigen&lt;br&gt;&lt;br&gt;Wahrsagerin: &quot;hmm lass uns mal gemeinsam schauen... die erste Karte zeigt, dass du nicht alleine bist und jemand über dich wacht.&quot;&lt;br&gt;&quot;Das können viele sein, aber ich spüre eine starke Kraft und Energie die von Rosalia kommt.&quot;&lt;br&gt;&quot;Die zweite Karte ist die Liebes Karte... aber mit dem Narr verbunden bedeutet das, dass es eine Unerwiderte Liebe war. &quot;&lt;br&gt;&quot;Eine unerwiderte Liebe ist kann zu viel Schmerz und Bösem führen... auch ein Mord wäre hier in Betracht zu ziehen.&quot;&lt;br&gt;&lt;br&gt;Rosi: &quot;Vielen Dank, das hilft uns schon sehr viel weiter!&lt;br&gt;Wahrsagerin: &quot;Gerne! und jetzt raus ihr zwei Abenteurer!&amp;nbsp;&lt;br&gt;&lt;br&gt;Ort: Zirkus" style="rounded=0;whiteSpace=wrap;html=1;" parent="1" vertex="1">
          <mxGeometry x="730" y="8030" width="350" height="380" as="geometry" />
        </mxCell>
        <mxCell id="Ay3apNEdG9EY7qlDHxBp-53" value="Bad Ending&lt;br&gt;Ort: Wohnzimmer&lt;br&gt;&lt;br&gt;Novel Page&amp;nbsp;&lt;br&gt;Zeitungsartikel vom Verschwinden von Rosi" style="rounded=0;whiteSpace=wrap;html=1;fillColor=#f8cecc;strokeColor=#b85450;" parent="1" vertex="1">
          <mxGeometry x="78.97" y="8440" width="256.22" height="110" as="geometry" />
        </mxCell>
        <mxCell id="nvY-KlJdmfwofK_SIzbv-7" style="edgeStyle=orthogonalEdgeStyle;rounded=0;orthogonalLoop=1;jettySize=auto;html=1;" parent="1" source="Ay3apNEdG9EY7qlDHxBp-55" target="nvY-KlJdmfwofK_SIzbv-2" edge="1">
          <mxGeometry relative="1" as="geometry" />
        </mxCell>
        <mxCell id="Ay3apNEdG9EY7qlDHxBp-55" value="PIC: &quot;Rosi, das kann doch nicht die wichtigste Frage gerade sein?&quot;&lt;br&gt;Rosi: &quot;Oh mein Gott du hast recht... irgendwie kam das einfach so aus mir raus&quot;&lt;br&gt;Wahrsagerin: &quot;man wählt immer das zuerst was einem am wichtigsten ist&quot;&lt;br&gt;Wahrsagerin: &quot;Lass uns mal schauen, was die Kugel sagt&quot;&lt;br&gt;Wahrsagerin: &quot;Oh, wie es scheint hast du deine große Liebe schon kennen gelernt... und ich glaube ihr seit bereits dabei ein großes Abenteuer zu erleben.... Du scheinst deiner Urgroßmutter doch ähnlicher zu sein als du glaubst&quot;&lt;br&gt;Rosi: &quot;Oh.. hihihi... danke&quot;&lt;br&gt;PIC: erötet&lt;br&gt;&amp;nbsp;&lt;br&gt;Wahrsager: &quot;So ihr habt eure Frage gewählt. Viel Spaß noch bei eurem Besuch unseres Zirkus.&quot;&lt;br&gt;&lt;br&gt;Ort: Zirkus" style="rounded=0;whiteSpace=wrap;html=1;" parent="1" vertex="1">
          <mxGeometry x="442.52" y="8074" width="244.96" height="336" as="geometry" />
        </mxCell>
        <mxCell id="Ay3apNEdG9EY7qlDHxBp-57" value="" style="shape=mxgraph.signs.healthcare.heart_1;html=1;pointerEvents=1;fillColor=#000000;strokeColor=none;verticalLabelPosition=bottom;verticalAlign=top;align=center;" parent="1" vertex="1">
          <mxGeometry x="554.18" y="8030" width="20" height="20" as="geometry" />
        </mxCell>
        <mxCell id="m0jVCM9L-4Xvr7T7UgM1-20" style="edgeStyle=orthogonalEdgeStyle;rounded=0;orthogonalLoop=1;jettySize=auto;html=1;entryX=0.5;entryY=0;entryDx=0;entryDy=0;" parent="1" source="nvY-KlJdmfwofK_SIzbv-1" target="m0jVCM9L-4Xvr7T7UgM1-14" edge="1">
          <mxGeometry relative="1" as="geometry" />
        </mxCell>
        <mxCell id="nvY-KlJdmfwofK_SIzbv-1" value="Clown: &quot;Ja als kleines Kind fand ich es schon immer toll Menschen zum lachen zu bringen... Aber vor kurzem habe ich meine Leidenschaft für Finanzen gefunden.&quot;&lt;br&gt;&quot;Ich möchte mich Selbstständig mache... aber pssst keinem erzählen!&quot;&lt;br&gt;&quot;Hier ist meine Karte falls ihr mal einen Finanzberater braucht oder jemanden kennt der jemanden braucht oder die jemanden kennen die jemand baucht oder die ...&quot;&lt;br&gt;&lt;br&gt;Location mit Karte&lt;br&gt;&lt;br&gt;PIC: &quot;Ehm ich glaube wir haben es verstanden, Danke wir werden bestimmt... mal darauf zurück .... kommen&quot;&lt;br&gt;Clown: &quot;Klar, einen Tipp habe ich aber noch&quot;&lt;br&gt;Clown: &quot;Wenn ihr die Wahrsagerin fragt, würde ich euch nicht empfehlen sie in die Vergangenheit schauen zu lassen. Das endet nie gut für alle beteiligten&quot;" style="rounded=0;whiteSpace=wrap;html=1;" parent="1" vertex="1">
          <mxGeometry x="1405.68" y="8090" width="264.41" height="340" as="geometry" />
        </mxCell>
        <mxCell id="nvY-KlJdmfwofK_SIzbv-12" style="edgeStyle=orthogonalEdgeStyle;rounded=0;orthogonalLoop=1;jettySize=auto;html=1;entryX=0.5;entryY=0;entryDx=0;entryDy=0;" parent="1" source="nvY-KlJdmfwofK_SIzbv-2" edge="1">
          <mxGeometry relative="1" as="geometry">
            <Array as="points">
              <mxPoint x="468" y="8560" />
            </Array>
            <mxPoint x="467.5" y="8680" as="targetPoint" />
          </mxGeometry>
        </mxCell>
        <mxCell id="JG6QZ4ECd0AovTRmUkIl-2" style="edgeStyle=orthogonalEdgeStyle;rounded=0;orthogonalLoop=1;jettySize=auto;html=1;entryX=0.5;entryY=0;entryDx=0;entryDy=0;" parent="1" source="nvY-KlJdmfwofK_SIzbv-2" target="m0jVCM9L-4Xvr7T7UgM1-18" edge="1">
          <mxGeometry relative="1" as="geometry" />
        </mxCell>
        <mxCell id="nvY-KlJdmfwofK_SIzbv-2" value="Entscheidung" style="rhombus;whiteSpace=wrap;html=1;" parent="1" vertex="1">
          <mxGeometry x="656.26" y="8510" width="101.49" height="100" as="geometry" />
        </mxCell>
        <mxCell id="nvY-KlJdmfwofK_SIzbv-5" value="Direktor" style="text;html=1;strokeColor=none;fillColor=none;align=center;verticalAlign=middle;whiteSpace=wrap;rounded=0;" parent="1" vertex="1">
          <mxGeometry x="860" y="8530" width="130" height="30" as="geometry" />
        </mxCell>
        <mxCell id="nvY-KlJdmfwofK_SIzbv-6" value="Clown" style="text;html=1;strokeColor=none;fillColor=none;align=center;verticalAlign=middle;whiteSpace=wrap;rounded=0;" parent="1" vertex="1">
          <mxGeometry x="471.6100000000001" y="8530" width="130" height="30" as="geometry" />
        </mxCell>
        <mxCell id="m0jVCM9L-4Xvr7T7UgM1-25" style="edgeStyle=orthogonalEdgeStyle;rounded=0;orthogonalLoop=1;jettySize=auto;html=1;" parent="1" edge="1">
          <mxGeometry relative="1" as="geometry">
            <mxPoint x="1010" y="9140" as="targetPoint" />
            <Array as="points">
              <mxPoint x="468" y="9050" />
              <mxPoint x="1011" y="9050" />
              <mxPoint x="1011" y="9140" />
            </Array>
            <mxPoint x="467.461538461539" y="8949" as="sourcePoint" />
          </mxGeometry>
        </mxCell>
        <mxCell id="nvY-KlJdmfwofK_SIzbv-11" value="Clown Seconde&lt;br&gt;Ort: Clownraum" style="rounded=0;whiteSpace=wrap;html=1;" parent="1" vertex="1">
          <mxGeometry x="249.99999999999977" y="8680" width="455" height="269" as="geometry" />
        </mxCell>
        <mxCell id="nvY-KlJdmfwofK_SIzbv-14" value="" style="endArrow=none;html=1;rounded=0;" parent="1" target="nvY-KlJdmfwofK_SIzbv-15" edge="1">
          <mxGeometry width="50" height="50" relative="1" as="geometry">
            <mxPoint x="-1600" y="5200" as="sourcePoint" />
            <mxPoint x="2412.8571428571427" y="5180" as="targetPoint" />
          </mxGeometry>
        </mxCell>
        <mxCell id="nvY-KlJdmfwofK_SIzbv-15" value="&lt;font style=&quot;font-size: 72px;&quot;&gt;Akt 3&lt;/font&gt;" style="text;html=1;strokeColor=none;fillColor=none;align=center;verticalAlign=middle;whiteSpace=wrap;rounded=0;" parent="1" vertex="1">
          <mxGeometry x="2210" y="5180" width="210" height="30" as="geometry" />
        </mxCell>
        <mxCell id="nvY-KlJdmfwofK_SIzbv-16" value="" style="endArrow=none;html=1;rounded=0;" parent="1" edge="1">
          <mxGeometry width="50" height="50" relative="1" as="geometry">
            <mxPoint x="-1550" y="1825" as="sourcePoint" />
            <mxPoint x="2260" y="1820" as="targetPoint" />
          </mxGeometry>
        </mxCell>
        <mxCell id="nvY-KlJdmfwofK_SIzbv-17" value="&lt;font style=&quot;font-size: 72px;&quot;&gt;Akt 2&lt;/font&gt;" style="text;html=1;strokeColor=none;fillColor=none;align=center;verticalAlign=middle;whiteSpace=wrap;rounded=0;" parent="1" vertex="1">
          <mxGeometry x="2260" y="1800" width="210" height="30" as="geometry" />
        </mxCell>
        <mxCell id="nvY-KlJdmfwofK_SIzbv-18" value="" style="endArrow=none;html=1;rounded=0;" parent="1" edge="1">
          <mxGeometry width="50" height="50" relative="1" as="geometry">
            <mxPoint x="-1542.5" y="65" as="sourcePoint" />
            <mxPoint x="2267.5" y="60" as="targetPoint" />
          </mxGeometry>
        </mxCell>
        <mxCell id="nvY-KlJdmfwofK_SIzbv-19" value="&lt;font style=&quot;font-size: 72px;&quot;&gt;Akt 1&lt;/font&gt;" style="text;html=1;strokeColor=none;fillColor=none;align=center;verticalAlign=middle;whiteSpace=wrap;rounded=0;" parent="1" vertex="1">
          <mxGeometry x="2267.5" y="40" width="210" height="30" as="geometry" />
        </mxCell>
        <mxCell id="nvY-KlJdmfwofK_SIzbv-20" value="" style="endArrow=none;html=1;rounded=0;" parent="1" target="nvY-KlJdmfwofK_SIzbv-21" edge="1">
          <mxGeometry width="50" height="50" relative="1" as="geometry">
            <mxPoint x="-1550" y="6970" as="sourcePoint" />
            <mxPoint x="2462.8571428571427" y="6950" as="targetPoint" />
          </mxGeometry>
        </mxCell>
        <mxCell id="nvY-KlJdmfwofK_SIzbv-21" value="&lt;font style=&quot;font-size: 72px;&quot;&gt;Akt 4&lt;/font&gt;" style="text;html=1;strokeColor=none;fillColor=none;align=center;verticalAlign=middle;whiteSpace=wrap;rounded=0;" parent="1" vertex="1">
          <mxGeometry x="2260" y="6950" width="210" height="30" as="geometry" />
        </mxCell>
        <mxCell id="nvY-KlJdmfwofK_SIzbv-23" value="&lt;font style=&quot;font-size: 18px;&quot;&gt;&lt;b&gt;+10P&lt;/b&gt;&lt;/font&gt;" style="text;html=1;strokeColor=none;fillColor=none;align=center;verticalAlign=middle;whiteSpace=wrap;rounded=0;" parent="1" vertex="1">
          <mxGeometry x="220" y="2280" width="60" height="30" as="geometry" />
        </mxCell>
        <mxCell id="m0jVCM9L-4Xvr7T7UgM1-1" value="Clue 2&lt;br&gt;Ort: Wohnzimmer&lt;br&gt;&lt;br&gt;Mom: &quot;Ich hab mich schon gewundert, das hätte ja beim aufräumen auftauchen sollen&quot;&lt;br&gt;Mom: &quot;Hast du denn schon etwas über deine Urgroßmutter herausfinden können?&lt;br&gt;Rosi: &quot; Warte mal... du bist mir nicht sauer, obwohl du immer sagst, dass du die Geschichten von Opa nie gut fandest?&lt;br&gt;Mom: &quot;Ach quatsch, das ist das Tagebuch deines Großvaters, da sind wahre Gefühle und Begebenheiten drin.&quot;&lt;br&gt;Mom: &quot;Dein Opa hatte nur wilde Geschichten, die wenig mit der Wahrheit zu tun hatten.&quot;&lt;br&gt;Rosi:&quot;Meinst du? Ich glaube für Opa waren seine Geschichten echt.&quot;&lt;br&gt;Mom:&quot; ja das stimmt natürlich mein Schatz, aber weißt du was wirklich echt war?&quot;&lt;br&gt;&lt;br&gt;Mom:&quot; Ich glaube mein Opa, also dein Urgroßvater, hat oft nicht gedacht, dass ich vieles nicht verstehe als ich noch klein war.&quot;&lt;br style=&quot;border-color: var(--border-color);&quot;&gt;Mom: &quot;Aber ich habe schon schnell verstanden, dass mein Opa und Rosalia sich für die Liebe und gegen die Familie entschieden haben.&quot;&lt;br style=&quot;border-color: var(--border-color);&quot;&gt;Mom: &quot;Soweit ich das weiß kam Rosalia aus gutem Hause und Opa war nur ein normaler Arbeiter, das hat zu der Zeit nicht wirklich zusammen gepasst.&quot;&lt;br style=&quot;border-color: var(--border-color);&quot;&gt;Mom:&quot; Ihre Mutter hat nach der Hochzeit nie wieder mehr ein Wort mit ihr gesprochen und wenn dann nur um sie zu überzeugen doch noch so einen komischen Kerl zu heiraten den die Familie irgendwie kannte.&quot;&lt;br style=&quot;border-color: var(--border-color);&quot;&gt;Mom: &quot;Wie hieß dieser Kerl nochmal?... Opa hat diesen Namen immer so mit Verachtung ausgesprochen.... Josua... nein Jak... nein Julius!&lt;br style=&quot;border-color: var(--border-color);&quot;&gt;Er hieß Julius genau!&amp;nbsp;&lt;br&gt;Mom:&quot;Wie manche Männer nun mal sind, hatten die beiden sogar einen Kampf um Rosalia... aber dieser Julius hat wohl nicht mit fairen Karten gespielt....&quot;&lt;br&gt;Rosi: &quot;Wow, das hab ich ja garnicht gewusst, das hört sich eigentlich nach einer schönen Liebesgeschichte an... Wenn es doch nicht so ein tragisches Ende gegeben hätte.&quot;&lt;br&gt;Mom:&quot; Ja da hast du Recht, aber jetzt ab ins Bett mit dir&quot;&lt;br&gt;Rosi: &quot;Gute Nacht Mama&quot;" style="rounded=0;whiteSpace=wrap;html=1;" parent="1" vertex="1">
          <mxGeometry x="-1132.1299999999999" y="4590" width="643" height="440" as="geometry" />
        </mxCell>
        <mxCell id="m0jVCM9L-4Xvr7T7UgM1-19" style="edgeStyle=orthogonalEdgeStyle;rounded=0;orthogonalLoop=1;jettySize=auto;html=1;entryX=0.5;entryY=0;entryDx=0;entryDy=0;" parent="1" source="m0jVCM9L-4Xvr7T7UgM1-4" target="m0jVCM9L-4Xvr7T7UgM1-14" edge="1">
          <mxGeometry relative="1" as="geometry" />
        </mxCell>
        <mxCell id="m0jVCM9L-4Xvr7T7UgM1-4" value="Clown: &quot;hmm ein Mord?&lt;br&gt;Rosi: &quot;Ja der Mord an meiner Urgroßmutter Rosalia&quot;&lt;br&gt;Clown: &quot;ich bin leider noch nicht lange bei diesem Zirkus... lass mich überlegen&quot;&lt;br&gt;&quot;Ich glaube ich habe mal die Wahrsagerin und den Direktor mit einander sprechen lassen, dass sie mich eigentlich gar nicht einstellen wollen, weil ich von außerhalb komme&quot;&lt;br&gt;&quot;Die hatten wohl früher mal ein Problem mit einer Seiltänzerin die für Schwierigkeiten gesorgt hat.&quot;&lt;br&gt;&quot;Irgendwas mit... Sie mussten beseitigt werden.&quot;&lt;br&gt;&quot;Ich habe mir nie darüber Gedanken gemacht... war nur froh, dass sie mich doch eingestellt haben&quot;&lt;br&gt;&lt;br&gt;Rosi:&quot; Oh danke, dass sind sehr wichtige Informationen&quot;&lt;br&gt;Clown: &quot;hihi gerne... auf Wiedersehen&quot;" style="rounded=0;whiteSpace=wrap;html=1;" parent="1" vertex="1">
          <mxGeometry x="1717.3" y="8090" width="264.41" height="340" as="geometry" />
        </mxCell>
        <mxCell id="m0jVCM9L-4Xvr7T7UgM1-9" style="edgeStyle=orthogonalEdgeStyle;rounded=0;orthogonalLoop=1;jettySize=auto;html=1;entryX=0.5;entryY=0;entryDx=0;entryDy=0;" parent="1" source="JG6QZ4ECd0AovTRmUkIl-5" target="nvY-KlJdmfwofK_SIzbv-1" edge="1">
          <mxGeometry relative="1" as="geometry" />
        </mxCell>
        <mxCell id="m0jVCM9L-4Xvr7T7UgM1-10" style="edgeStyle=orthogonalEdgeStyle;rounded=0;orthogonalLoop=1;jettySize=auto;html=1;entryX=0.5;entryY=0;entryDx=0;entryDy=0;" parent="1" source="m0jVCM9L-4Xvr7T7UgM1-5" target="m0jVCM9L-4Xvr7T7UgM1-4" edge="1">
          <mxGeometry relative="1" as="geometry" />
        </mxCell>
        <mxCell id="m0jVCM9L-4Xvr7T7UgM1-11" style="edgeStyle=orthogonalEdgeStyle;rounded=0;orthogonalLoop=1;jettySize=auto;html=1;entryX=0.5;entryY=0;entryDx=0;entryDy=0;" parent="1" source="m0jVCM9L-4Xvr7T7UgM1-5" target="Ay3apNEdG9EY7qlDHxBp-24" edge="1">
          <mxGeometry relative="1" as="geometry" />
        </mxCell>
        <mxCell id="m0jVCM9L-4Xvr7T7UgM1-5" value="Entscheidung" style="rhombus;whiteSpace=wrap;html=1;" parent="1" vertex="1">
          <mxGeometry x="1487.1399999999999" y="7920" width="101.49" height="100" as="geometry" />
        </mxCell>
        <mxCell id="m0jVCM9L-4Xvr7T7UgM1-6" value="Reist deine Familie schon länger mit diesem Zirkus mit?" style="text;html=1;strokeColor=none;fillColor=none;align=center;verticalAlign=middle;whiteSpace=wrap;rounded=0;" parent="1" vertex="1">
          <mxGeometry x="1232.5" y="7926" width="233.5" height="30" as="geometry" />
        </mxCell>
        <mxCell id="m0jVCM9L-4Xvr7T7UgM1-7" value="Weißt du etwas von einem Mord im Zirkus?" style="text;html=1;strokeColor=none;fillColor=none;align=center;verticalAlign=middle;whiteSpace=wrap;rounded=0;" parent="1" vertex="1">
          <mxGeometry x="1622.5" y="7926" width="130" height="30" as="geometry" />
        </mxCell>
        <mxCell id="m0jVCM9L-4Xvr7T7UgM1-12" style="edgeStyle=orthogonalEdgeStyle;rounded=0;orthogonalLoop=1;jettySize=auto;html=1;entryX=0.5;entryY=0;entryDx=0;entryDy=0;" parent="1" source="m0jVCM9L-4Xvr7T7UgM1-14" target="m0jVCM9L-4Xvr7T7UgM1-18" edge="1">
          <mxGeometry relative="1" as="geometry">
            <Array as="points">
              <mxPoint x="1134" y="8560" />
            </Array>
            <mxPoint x="1460" y="8680" as="targetPoint" />
          </mxGeometry>
        </mxCell>
        <mxCell id="m0jVCM9L-4Xvr7T7UgM1-13" style="edgeStyle=orthogonalEdgeStyle;rounded=0;orthogonalLoop=1;jettySize=auto;html=1;" parent="1" source="m0jVCM9L-4Xvr7T7UgM1-14" target="m0jVCM9L-4Xvr7T7UgM1-17" edge="1">
          <mxGeometry relative="1" as="geometry">
            <Array as="points">
              <mxPoint x="1944" y="8560" />
            </Array>
          </mxGeometry>
        </mxCell>
        <mxCell id="m0jVCM9L-4Xvr7T7UgM1-14" value="Entscheidung" style="rhombus;whiteSpace=wrap;html=1;" parent="1" vertex="1">
          <mxGeometry x="1648.26" y="8510" width="101.49" height="100" as="geometry" />
        </mxCell>
        <mxCell id="m0jVCM9L-4Xvr7T7UgM1-15" value="Direktor" style="text;html=1;strokeColor=none;fillColor=none;align=center;verticalAlign=middle;whiteSpace=wrap;rounded=0;" parent="1" vertex="1">
          <mxGeometry x="1461.24" y="8530" width="130" height="30" as="geometry" />
        </mxCell>
        <mxCell id="m0jVCM9L-4Xvr7T7UgM1-16" value="Wahrsagerin" style="text;html=1;strokeColor=none;fillColor=none;align=center;verticalAlign=middle;whiteSpace=wrap;rounded=0;" parent="1" vertex="1">
          <mxGeometry x="1784.5" y="8530" width="130" height="30" as="geometry" />
        </mxCell>
        <mxCell id="m0jVCM9L-4Xvr7T7UgM1-23" style="edgeStyle=orthogonalEdgeStyle;rounded=0;orthogonalLoop=1;jettySize=auto;html=1;entryX=0.5;entryY=0;entryDx=0;entryDy=0;" parent="1" source="m0jVCM9L-4Xvr7T7UgM1-17" target="Ay3apNEdG9EY7qlDHxBp-12" edge="1">
          <mxGeometry relative="1" as="geometry">
            <Array as="points">
              <mxPoint x="1945" y="9050" />
              <mxPoint x="1011" y="9050" />
            </Array>
          </mxGeometry>
        </mxCell>
        <mxCell id="irJQdieEGFat-eJ0aWGL-1" style="edgeStyle=orthogonalEdgeStyle;rounded=0;orthogonalLoop=1;jettySize=auto;html=1;entryX=1;entryY=0.5;entryDx=0;entryDy=0;exitX=0.866;exitY=-0.02;exitDx=0;exitDy=0;exitPerimeter=0;startArrow=blockThin;startFill=1;" edge="1" parent="1" source="m0jVCM9L-4Xvr7T7UgM1-17" target="Ay3apNEdG9EY7qlDHxBp-1">
          <mxGeometry relative="1" as="geometry">
            <mxPoint x="2160" y="8400" as="sourcePoint" />
            <Array as="points">
              <mxPoint x="2111" y="8400" />
              <mxPoint x="2110" y="7560" />
              <mxPoint x="1255" y="7560" />
              <mxPoint x="1255" y="7734" />
            </Array>
          </mxGeometry>
        </mxCell>
        <mxCell id="m0jVCM9L-4Xvr7T7UgM1-17" value="Wahrsagerin&amp;nbsp;Seconde&lt;br&gt;Ort: Wahrsagerraum" style="rounded=0;whiteSpace=wrap;html=1;" parent="1" vertex="1">
          <mxGeometry x="1716.9999999999998" y="8680" width="455" height="269" as="geometry" />
        </mxCell>
        <mxCell id="m0jVCM9L-4Xvr7T7UgM1-22" style="edgeStyle=orthogonalEdgeStyle;rounded=0;orthogonalLoop=1;jettySize=auto;html=1;" parent="1" source="m0jVCM9L-4Xvr7T7UgM1-18" target="Ay3apNEdG9EY7qlDHxBp-12" edge="1">
          <mxGeometry relative="1" as="geometry">
            <Array as="points">
              <mxPoint x="1134" y="9050" />
              <mxPoint x="1011" y="9050" />
            </Array>
          </mxGeometry>
        </mxCell>
        <mxCell id="m0jVCM9L-4Xvr7T7UgM1-18" value="Direktor Seconde&lt;br&gt;Ort: Zirkus&lt;br&gt;&lt;br&gt;Rosi: &quot;Entschuldigung Herr Direktor?&quot;&lt;br&gt;Direktor: &quot;Einen wunderschönen Guten Tag&amp;nbsp;" style="rounded=0;whiteSpace=wrap;html=1;" parent="1" vertex="1">
          <mxGeometry x="906.1199999999998" y="8680" width="455" height="269" as="geometry" />
        </mxCell>
        <mxCell id="JG6QZ4ECd0AovTRmUkIl-3" value="Wolltest du schon immer Clown werden?" style="text;html=1;strokeColor=none;fillColor=none;align=center;verticalAlign=middle;whiteSpace=wrap;rounded=0;" parent="1" vertex="1">
          <mxGeometry x="1540.1" y="8025" width="130" height="30" as="geometry" />
        </mxCell>
        <mxCell id="JG6QZ4ECd0AovTRmUkIl-6" value="" style="edgeStyle=orthogonalEdgeStyle;rounded=0;orthogonalLoop=1;jettySize=auto;html=1;entryX=0.5;entryY=0;entryDx=0;entryDy=0;" parent="1" source="m0jVCM9L-4Xvr7T7UgM1-5" target="JG6QZ4ECd0AovTRmUkIl-5" edge="1">
          <mxGeometry relative="1" as="geometry">
            <mxPoint x="1538" y="8020" as="sourcePoint" />
            <mxPoint x="1538" y="8110" as="targetPoint" />
          </mxGeometry>
        </mxCell>
        <mxCell id="JG6QZ4ECd0AovTRmUkIl-5" value="" style="shape=mxgraph.signs.healthcare.heart_1;html=1;pointerEvents=1;fillColor=#000000;strokeColor=none;verticalLabelPosition=bottom;verticalAlign=top;align=center;" parent="1" vertex="1">
          <mxGeometry x="1527.88" y="8055" width="20" height="20" as="geometry" />
        </mxCell>
        <mxCell id="irJQdieEGFat-eJ0aWGL-3" value="" style="shape=mxgraph.signs.healthcare.heart_1;html=1;pointerEvents=1;fillColor=#000000;strokeColor=none;verticalLabelPosition=bottom;verticalAlign=top;align=center;" vertex="1" parent="1">
          <mxGeometry x="1894.5" y="8550" width="20" height="20" as="geometry" />
        </mxCell>
      </root>
    </mxGraphModel>
  </diagram>
</mxfile>
